<svg width="63" height="63" viewBox="0 0 63 63" fill="none" xmlns="http://www.w3.org/2000/svg">
<path d="M32.419 0.879401L33.2034 18.3592C33.2456 19.3204 34.5476 19.5792 34.9569 18.7077L42.3698 2.85739C42.8662 1.79577 44.4692 2.45863 44.0678 3.55987L38.1021 20.0097C37.7747 20.9129 38.8786 21.6523 39.5889 21.0026L52.5027 9.19806C53.3689 8.40581 54.5942 9.63117 53.8019 10.4974L41.9974 23.4111C41.3477 24.1215 42.0872 25.2254 42.9903 24.8979L59.4402 18.9322C60.544 18.5335 61.2069 20.1338 60.1426 20.6303L44.2922 28.0431C43.4208 28.4498 43.6796 29.7518 44.6409 29.7967L62.1206 30.581C63.2931 30.6338 63.2931 32.3662 62.1206 32.419L44.6409 33.2034C43.6796 33.2456 43.4208 34.5475 44.2922 34.9569L60.1426 42.3697C61.2042 42.8662 60.5414 44.4692 59.4402 44.0678L42.9903 38.1021C42.0872 37.7747 41.3477 38.8785 41.9974 39.5889L53.8019 52.5026C54.5942 53.3688 53.3689 54.5942 52.5027 53.8019L39.5889 41.9974C38.8786 41.3477 37.7747 42.0872 38.1021 42.9903L44.0678 59.4401C44.4666 60.544 42.8662 61.2069 42.3698 60.1426L34.9569 44.2923C34.5502 43.4208 33.2483 43.6796 33.2034 44.6409L32.419 62.1206C32.3662 63.2931 30.6338 63.2931 30.581 62.1206L29.7967 44.6409C29.7544 43.6796 28.4525 43.4208 28.0431 44.2923L20.6303 60.1426C20.1338 61.2042 18.5308 60.5414 18.9322 59.4401L24.8979 42.9903C25.2253 42.0872 24.1215 41.3477 23.4111 41.9974L10.4974 53.8019C9.63118 54.5942 8.40581 53.3688 9.19807 52.5026L21.0026 39.5889C21.6523 38.8785 20.9128 37.7747 20.0097 38.1021L3.55987 44.0678C2.45599 44.4666 1.79313 42.8662 2.85739 42.3697L18.7078 34.9569C19.5792 34.5502 19.3204 33.2482 18.3591 33.2034L0.879402 32.419C-0.293134 32.3662 -0.293134 30.6338 0.879402 30.581L18.3591 29.7967C19.3204 29.7544 19.5792 28.4525 18.7078 28.0431L2.85739 20.6303C1.79577 20.1338 2.45863 18.5308 3.55987 18.9322L20.0097 24.8979C20.9128 25.2254 21.6523 24.1215 21.0026 23.4111L9.19807 10.4974C8.40581 9.63117 9.63118 8.40581 10.4974 9.19806L23.4111 21.0026C24.1215 21.6523 25.2253 20.9129 24.8979 20.0097L18.9322 3.55987C18.5335 2.45599 20.1338 1.79313 20.6303 2.85739L28.0431 18.7077C28.4498 19.5792 29.7518 19.3204 29.7967 18.3592L30.581 0.879401C30.6338 -0.293134 32.3662 -0.293134 32.419 0.879401Z" fill="#E20080"/>
</svg>
