<svg width="87" height="87" viewBox="0 0 87 87" fill="none" xmlns="http://www.w3.org/2000/svg">
<mask id="mask0_922_1543" style="mask-type:luminance" maskUnits="userSpaceOnUse" x="0" y="0" width="87" height="87">
<path d="M0 9.15527e-05H86.9999V87H0V9.15527e-05Z" fill="white"/>
</mask>
<g mask="url(#mask0_922_1543)">
<path d="M78.3003 43.4997C78.3003 62.7195 62.72 78.2998 43.5002 78.2998C24.2805 78.2998 8.70013 62.7195 8.70013 43.4997C8.70013 24.2799 24.2805 8.69962 43.5002 8.69962C62.72 8.69962 78.3003 24.2799 78.3003 43.4997Z" fill="#00BBB6"/>
<path d="M40.9321 39.5939C40.7234 39.6246 40.5122 39.6406 40.3029 39.6406C38.3018 39.64 36.58 38.2005 36.2964 36.2915C35.9772 34.1388 37.5376 32.1174 39.7738 31.786C40.147 31.7301 40.5221 31.7319 40.891 31.7761C40.1826 31.4084 39.3803 31.1973 38.5271 31.1973C35.6881 31.1973 33.3862 33.4992 33.3862 36.3381C33.3862 39.1771 35.6881 41.479 38.5271 41.479C40.5902 41.479 42.3642 40.2605 43.183 38.5068C42.5667 39.0844 41.7847 39.4675 40.9321 39.5939Z" fill="white"/>
<path d="M41.7687 33.0593C40.0659 33.4902 39.6043 34.7879 39.7264 35.7676C39.8504 36.7632 40.6153 37.8356 42.0007 37.835C42.1443 37.835 42.2929 37.8233 42.4426 37.8C42.717 37.7564 42.9754 37.6754 43.2124 37.5587L43.5604 37.3862C43.6304 37.048 43.6679 36.6975 43.6679 36.3384C43.6679 35.0917 43.2234 33.9494 42.4856 33.0593C42.2573 33.0219 41.9884 33.0041 41.7687 33.0593Z" fill="white"/>
<path d="M48.9518 31.1978C47.2178 31.1978 45.6875 32.059 44.7563 33.3744C44.7299 33.5205 44.7133 33.6697 44.7133 33.8231C44.7133 35.2325 45.8557 36.3748 47.265 36.3748C48.6738 36.3748 49.8161 35.2325 49.8161 33.8231C49.8167 33.4573 49.7375 33.1099 49.5982 32.795C50.3336 33.4432 50.7995 34.3885 50.7995 35.4449C50.7995 37.3969 49.217 38.98 47.265 38.98C45.5782 38.98 44.1701 37.7971 43.8171 36.2171C43.8159 36.2582 43.811 36.2975 43.811 36.3386C43.811 39.1776 46.1129 41.4795 48.9518 41.4795C51.7908 41.4795 54.0921 39.1776 54.0921 36.3386C54.0921 33.4997 51.7908 31.1978 48.9518 31.1978Z" fill="white"/>
<path d="M43.7385 22.1583C40.8995 22.1583 38.5976 24.4602 38.5976 27.2992C38.5976 30.0369 40.7399 32.2688 43.4389 32.4253C44.4272 31.5935 44.6457 30.1326 43.9042 29.0412C43.1123 27.8756 41.5256 27.5729 40.3593 28.3654C40.0567 28.5704 39.8136 28.8307 39.6319 29.1229C39.7541 28.1506 40.2746 27.2335 41.1481 26.6399C42.7625 25.543 44.9612 25.9622 46.0587 27.5766C47.0347 29.0124 46.8082 30.9091 45.61 32.0834C47.5227 31.3345 48.8793 29.477 48.8793 27.2992C48.8793 24.4602 46.5774 22.1583 43.7385 22.1583Z" fill="white"/>
<path d="M25.4324 51.528H27.301L26.3778 49.031L25.4324 51.528ZM27.5907 52.3144H25.1415L24.4522 54.1147H23.5799L25.972 48.0286H26.7835L29.167 54.1147H28.2598L27.5907 52.3144Z" fill="white"/>
<path d="M31.3701 53.1633L33.1146 48.0286H33.9776L31.7715 54.1147H30.9686L28.7625 48.0286H29.6256L31.3701 53.1633Z" fill="white"/>
<path d="M35.2133 51.528H37.0818L36.1586 49.031L35.2133 51.528ZM37.3716 52.3144H34.9224L34.233 54.1147H33.3608L35.7529 48.0286H36.5644L38.9479 54.1147H38.0406L37.3716 52.3144Z" fill="white"/>
<path d="M40.3553 49.1938L40.4228 54.1143H39.6113V48.0281H40.4652L43.5675 52.8043L43.5165 48.0281H44.3108V54.1143H43.5313L40.3553 49.1938Z" fill="white"/>
<path d="M47.1141 48.7725V54.1147H46.3112V48.7725H45.0854V48.0286H48.3479V48.7725H47.1141Z" fill="white"/>
<path d="M49.6601 51.528H51.5286L50.6054 49.031L49.6601 51.528ZM51.8183 52.3144H49.3691L48.6798 54.1147H47.8076L50.1997 48.0286H51.0112L53.3947 54.1147H52.4874L51.8183 52.3144Z" fill="white"/>
<path d="M55.7699 51.858V51.0889H59.5057C59.4382 52.0526 59.1485 52.8076 58.6353 53.3539C58.089 53.9401 57.342 54.2329 56.3954 54.2329C55.4771 54.2329 54.7301 53.9291 54.1555 53.3201C53.5859 52.7284 53.3017 51.9709 53.3017 51.0465C53.3017 50.1675 53.6086 49.4247 54.2231 48.8189C54.8375 48.2137 55.5839 47.9104 56.4629 47.9104C57.7422 47.9104 58.6243 48.4432 59.1086 49.5076H58.0945C57.779 48.9785 57.2124 48.7139 56.3954 48.7139C55.7865 48.7139 55.2598 48.949 54.8148 49.4192C54.3698 49.89 54.1469 50.432 54.1469 51.0465C54.1469 51.7395 54.3501 52.3116 54.7559 52.7622C55.1616 53.2133 55.7079 53.4386 56.3954 53.4386C57.5114 53.4386 58.2326 52.9119 58.5592 51.858H55.7699Z" fill="white"/>
<path d="M63.4209 53.3456V54.1147H60.2934V48.0286H63.4209V48.756H61.1049V50.7H63.4209V51.4102H61.1049V53.3456H63.4209Z" fill="white"/>
<path d="M29.871 59.4906V59.8423H28.4426V57.0616H29.871V57.3937H28.8128V58.2819H29.871V58.6066H28.8128V59.4906H29.871Z" fill="white"/>
<path d="M31.602 59.4077L32.3987 57.0616H32.7934L31.7855 59.8423H31.4184L30.4111 57.0616H30.8052L31.602 59.4077Z" fill="white"/>
<path d="M34.7867 59.491V59.8428H33.3583V57.0621H34.7867V57.3942H33.7285V58.2824H34.7867V58.6071H33.7285V59.491H34.7867Z" fill="white"/>
<path d="M35.979 57.5944L36.0097 59.8423H35.6389V57.0622H36.0287L37.446 59.2438L37.4227 57.0622H37.7861V59.8423H37.4295L35.979 57.5944Z" fill="white"/>
<path d="M39.3939 57.4012V59.8418H39.0269V57.4012H38.4677V57.0617H39.958V57.4012H39.3939Z" fill="white"/>
<path d="M42.4636 57.3937V58.3752H42.7803C43.1978 58.3752 43.4058 58.2144 43.4058 57.8921C43.4058 57.5601 43.2021 57.3937 42.7957 57.3937H42.4636ZM42.4636 58.7067V59.8423H42.1002V57.0616H42.8497C43.4648 57.0616 43.7723 57.3311 43.7723 57.8688C43.7723 58.142 43.6784 58.3531 43.4906 58.5023C43.3181 58.6386 43.0922 58.7067 42.811 58.7067H42.4636Z" fill="white"/>
<path d="M44.8495 58.4943L44.8722 58.5256H44.8495V58.4943ZM44.8495 57.4017V59.8423H44.4824V57.0616H45.2786C45.955 57.0616 46.2938 57.3587 46.2938 57.9523C46.2938 58.1813 46.2147 58.3728 46.0569 58.5256C45.8992 58.6778 45.7064 58.7552 45.4781 58.7552L46.2754 59.8423H45.8144L44.8722 58.5256C45.2393 58.5256 45.4756 58.509 45.5818 58.4753C45.8218 58.4004 45.9421 58.2242 45.9421 57.9462C45.9421 57.5834 45.6874 57.4017 45.1791 57.4017H44.8495Z" fill="white"/>
<path d="M49.4027 58.429C49.4027 58.1485 49.3008 57.9024 49.0957 57.6918C48.8913 57.4807 48.6482 57.3751 48.3677 57.3751C48.0872 57.3751 47.8441 57.4819 47.6385 57.6955C47.4316 57.9091 47.3291 58.1559 47.3291 58.437C47.3291 58.728 47.4292 58.9833 47.6305 59.2037C47.8306 59.4234 48.0768 59.5333 48.3677 59.5333C48.6716 59.5333 48.9208 59.4241 49.1172 59.2055C49.3075 58.9944 49.4027 58.7353 49.4027 58.429ZM49.793 58.437C49.793 58.8409 49.6562 59.1859 49.3836 59.4719C49.1105 59.7574 48.7722 59.9004 48.3677 59.9004C47.9687 59.9004 47.6305 59.7568 47.3543 59.4683C47.0774 59.1797 46.9387 58.836 46.9387 58.437C46.9387 58.046 47.0805 57.7096 47.3641 57.4291C47.6471 57.1486 47.9841 57.008 48.3757 57.008C48.7698 57.008 49.1037 57.1473 49.3799 57.4273C49.6549 57.7065 49.793 58.0429 49.793 58.437Z" fill="white"/>
<path d="M51.4219 57.0618H51.7889V59.0273C51.7889 59.2955 51.7288 59.5042 51.6072 59.6534C51.4734 59.8155 51.2764 59.8965 51.0167 59.8965C50.8007 59.8965 50.6306 59.8437 50.5066 59.7381C50.3734 59.6221 50.3059 59.4582 50.3059 59.2477H50.6693C50.6693 59.4539 50.7872 59.5564 51.0241 59.5564C51.1892 59.5564 51.3009 59.4999 51.3605 59.3864C51.4016 59.3072 51.4219 59.1795 51.4219 59.0046V57.0618Z" fill="white"/>
<path d="M54.0638 59.4906V59.8423H52.6354V57.0616H54.0638V57.3937H53.0055V58.2819H54.0638V58.6066H53.0055V59.4906H54.0638Z" fill="white"/>
<path d="M56.9722 59.1787H57.4357C57.2018 59.6581 56.7911 59.8975 56.2043 59.8975C55.8047 59.8975 55.4695 59.7538 55.1976 59.4684C54.9263 59.1823 54.7906 58.8386 54.7906 58.4372C54.7906 58.0486 54.93 57.7134 55.2099 57.4317C55.4886 57.1493 55.8225 57.0088 56.2117 57.0088C56.4873 57.0088 56.7304 57.0701 56.9415 57.1941C57.1631 57.3224 57.3276 57.509 57.4357 57.754H56.9955C56.8077 57.5017 56.5438 57.3752 56.2043 57.3752C55.9256 57.3752 55.685 57.4826 55.4818 57.6963C55.2786 57.9099 55.1768 58.1566 55.1768 58.4372C55.1768 58.7281 55.2744 58.9822 55.4702 59.1983C55.6715 59.4217 55.9158 59.5341 56.2043 59.5341C56.5438 59.5341 56.8003 59.4156 56.9722 59.1787Z" fill="white"/>
<path d="M58.9182 57.4017V59.8423H58.5518V57.4017H57.9919V57.0622H59.4823V57.4017H58.9182Z" fill="white"/>
</g>
</svg>
