<svg width="762" height="400" viewBox="0 0 762 400" fill="none" xmlns="http://www.w3.org/2000/svg">
<path d="M145.341 353V308.2H20.1406V257.4L110.941 65H173.341L82.5406 257.4H145.341V185.4H200.541V257.4H226.141V308.2H200.541V353H145.341ZM381.034 359C359.701 359 341.034 354.533 325.034 345.6C309.034 336.667 296.568 324.2 287.634 308.2C278.701 292.2 274.234 273.533 274.234 252.2V165.8C274.234 144.467 278.701 125.8 287.634 109.8C296.568 93.8 309.034 81.3333 325.034 72.4C341.034 63.4667 359.701 59 381.034 59C402.368 59 421.034 63.4667 437.034 72.4C453.034 81.3333 465.501 93.8 474.434 109.8C483.368 125.8 487.834 144.467 487.834 165.8V252.2C487.834 273.533 483.368 292.2 474.434 308.2C465.501 324.2 453.034 336.667 437.034 345.6C421.034 354.533 402.368 359 381.034 359ZM381.034 307.4C390.634 307.4 399.301 305.133 407.034 300.6C414.768 296.067 420.901 289.933 425.434 282.2C429.968 274.467 432.234 265.8 432.234 256.2V161.4C432.234 151.8 429.968 143.133 425.434 135.4C420.901 127.667 414.768 121.533 407.034 117C399.301 112.467 390.634 110.2 381.034 110.2C371.434 110.2 362.768 112.467 355.034 117C347.301 121.533 341.168 127.667 336.634 135.4C332.101 143.133 329.834 151.8 329.834 161.4V256.2C329.834 265.8 332.101 274.467 336.634 282.2C341.168 289.933 347.301 296.067 355.034 300.6C362.768 305.133 371.434 307.4 381.034 307.4ZM660.966 353V308.2H535.766V257.4L626.566 65H688.966L598.166 257.4H660.966V185.4H716.166V257.4H741.766V308.2H716.166V353H660.966Z" fill="#00BBB6"/>
<g clip-path="url(#clip0_2017_1344)">
<path d="M332.19 108C344.46 108 350.11 112.23 357.27 117.59C365.05 123.41 373.86 129.97 390.53 130.32V114.32C379.21 114.01 373.71 109.91 366.83 104.77C358.83 98.77 349.83 92 332.19 92C314.55 92 305.54 98.78 297.55 104.77C290.7 109.89 285.22 114 274 114.32V130.32C290.58 129.93 299.36 123.39 307.12 117.59C314.27 112.19 319.92 108 332.19 108Z" fill="white"/>
<path d="M451.47 197.29C433.88 197.29 424.82 204.07 416.83 210.05C409.67 215.41 404.02 219.63 391.75 219.63C379.48 219.63 373.82 215.41 366.67 210.05C358.67 204.05 349.61 197.29 332.03 197.29C314.45 197.29 305.38 204.07 297.39 210.05C290.57 215.15 285.11 219.22 274 219.6V235.6C290.47 235.17 299.22 228.66 307 222.87C314.16 217.52 319.81 213.29 332.08 213.29C344.35 213.29 350 217.52 357.16 222.87C365.16 228.87 374.16 235.64 391.8 235.64C409.44 235.64 418.45 228.86 426.44 222.87C433.59 217.52 439.24 213.29 451.52 213.29C463.8 213.29 469.44 217.52 476.59 222.87C484.44 228.75 493.34 235.38 510.31 235.61V219.61C498.69 219.4 493.13 215.27 486.16 210.05C478.12 204.07 469.05 197.29 451.47 197.29Z" fill="white"/>
<path d="M451.47 251.56C433.88 251.56 424.82 258.34 416.83 264.33C409.67 269.68 404.02 273.91 391.75 273.91C379.48 273.91 373.82 269.68 366.67 264.33C358.67 258.33 349.61 251.56 332.03 251.56C314.45 251.56 305.38 258.34 297.39 264.33C290.57 269.43 285.11 273.5 274 273.87V289.87C290.47 289.45 299.22 282.93 307 277.15C314.16 271.79 319.81 267.56 332.08 267.56C344.35 267.56 350 271.79 357.16 277.15C365.16 283.15 374.16 289.91 391.8 289.91C409.44 289.91 418.45 283.13 426.44 277.15C433.59 271.79 439.24 267.56 451.52 267.56C463.8 267.56 469.44 271.79 476.59 277.15C484.44 283.02 493.34 289.65 510.31 289.89V273.89C498.69 273.68 493.13 269.54 486.16 264.33C478.12 258.34 469.05 251.56 451.47 251.56Z" fill="white"/>
<path d="M486.11 157.37C478.11 151.37 469.05 144.61 451.47 144.61C433.89 144.61 424.82 151.39 416.83 157.37C409.67 162.73 404 167 391.75 167C379.5 167 373.82 162.78 366.67 157.42C358.67 151.42 349.61 144.66 332.03 144.66C314.45 144.66 305.38 151.39 297.39 157.37C290.57 162.47 285.11 166.54 274 166.92V182.92C290.47 182.49 299.22 175.98 307 170.19C314.11 164.8 319.76 160.57 332 160.57C344.24 160.57 350 164.8 357.11 170.15C365.11 176.15 374.11 182.92 391.75 182.92C409.39 182.92 418.4 176.14 426.39 170.15C433.54 164.8 439.19 160.57 451.47 160.57C463.75 160.57 469.39 164.8 476.54 170.15C484.39 176.03 493.29 182.66 510.26 182.9V166.9C498.64 166.72 493.08 162.59 486.11 157.37Z" fill="white"/>
<path d="M451.47 304.24C433.88 304.24 424.82 311.02 416.83 317.01C409.67 322.36 404.02 326.59 391.75 326.59C391.33 326.59 390.94 326.59 390.53 326.59V342.59C390.94 342.59 391.33 342.59 391.75 342.59C409.33 342.59 418.4 335.81 426.39 329.83C433.54 324.47 439.19 320.24 451.47 320.24C463.75 320.24 469.39 324.47 476.54 329.83C484.39 335.7 493.29 342.33 510.26 342.57V326.57C498.64 326.36 493.08 322.22 486.11 317.01C478.12 311 469.05 304.24 451.47 304.24Z" fill="white"/>
</g>
<defs>
<clipPath id="clip0_2017_1344">
<rect width="236.26" height="250.55" fill="white" transform="translate(274 92)"/>
</clipPath>
</defs>
</svg>
