<svg width="160" height="139" viewBox="0 0 160 139" fill="none" xmlns="http://www.w3.org/2000/svg">
<mask id="mask0_2027_3511" style="mask-type:alpha" maskUnits="userSpaceOnUse" x="0" y="0" width="160" height="139">
<rect width="160" height="139" fill="#D9D9D9"/>
</mask>
<g mask="url(#mask0_2027_3511)">
<path opacity="0.05" d="M158.5 1.99999L154.5 30.5C146.5 29.8333 140 31.1667 135 34.5C130 37.6667 126.5 42.3333 124.5 48.5C122.667 54.5 122.333 61.5 123.5 69.5H158.5V137.5H90.5V69.5C90.5 45.5 96.0833 27.3333 107.25 15C118.417 2.49999 135.5 -1.83335 158.5 1.99999ZM68 1.99999L64 30.5C56 29.8333 49.5 31.1667 44.5 34.5C39.5 37.6667 36 42.3333 34 48.5C32.1667 54.5 31.8333 61.5 33 69.5H68V137.5H2.83122e-06V69.5C2.83122e-06 45.5 5.58334 27.3333 16.75 15C27.9167 2.49999 45 -1.83335 68 1.99999Z" fill="black"/>
</g>
</svg>
