<svg width="166" height="57" viewBox="0 0 166 57" fill="none" xmlns="http://www.w3.org/2000/svg">
<path d="M25.4625 1.16612L26.3538 1.06865V1H137.555C144.832 1 151.811 3.89627 156.957 9.0523C162.103 14.2084 164.994 21.202 164.994 28.4946C164.994 35.7873 162.103 42.7809 156.957 47.9369C151.811 53.093 144.832 55.9893 137.555 55.9893H27.3948V55.989L26.4668 55.922C19.6363 55.4287 13.2363 52.3938 8.52474 47.4131C3.8131 42.4323 1.13052 35.8658 1.00464 29.0038C0.878759 22.1417 3.31869 15.4808 7.84452 10.3299C12.3703 5.17905 18.6546 1.91057 25.4625 1.16612ZM2.11747 28.4934L2.11747 28.4955C2.12337 35.4877 4.89749 42.1925 9.83172 47.1384C14.766 52.0844 21.4575 54.8675 28.438 54.8763H28.4392H42.015L42.4706 52.9861C37.9681 50.682 34.1882 47.1762 31.5484 42.8553C28.9085 38.5344 27.5114 33.5665 27.5114 28.5C27.5114 23.4335 28.9085 18.4656 31.5484 14.1447C34.1882 9.82382 37.9681 6.31797 42.4706 4.01386L42.015 2.12366L28.4392 2.12366L28.438 2.12366C21.4594 2.13253 14.7696 4.91408 9.83566 9.85765C4.90174 14.8012 2.12632 21.503 2.11747 28.4934ZM72.0861 52.9808L72.5417 54.871H86.1175C93.1005 54.871 99.7971 52.0916 104.734 47.1448C109.671 42.1982 112.445 35.4894 112.445 28.4946C112.445 21.4998 109.671 14.7911 104.734 9.84442C99.7971 4.89768 93.1005 2.11828 86.1175 2.11828H72.5417L72.0861 4.00849C76.5886 6.31259 80.3685 9.81845 83.0083 14.1393C85.6482 18.4603 87.0453 23.4281 87.0453 28.4946C87.0453 33.5611 85.6482 38.529 83.0083 42.8499C80.3685 47.1708 76.5886 50.6767 72.0861 52.9808ZM98.583 52.9808L99.0386 54.871H111.074C118.057 54.871 124.754 52.0916 129.691 47.1448C134.628 42.1982 137.401 35.4894 137.401 28.4946C137.401 21.4998 134.628 14.7911 129.691 9.84442C124.754 4.89768 118.057 2.11828 111.074 2.11828H99.0386L98.583 4.00849C103.086 6.31259 106.865 9.81845 109.505 14.1393C112.145 18.4603 113.542 23.4281 113.542 28.4946C113.542 33.5611 112.145 38.529 109.505 42.8499C106.865 47.1708 103.086 50.6767 98.583 52.9808ZM123.524 52.9808L123.979 54.871H137.555C144.538 54.871 151.235 52.0916 156.172 47.1448C161.109 42.1982 163.882 35.4894 163.882 28.4946C163.882 21.4998 161.109 14.7911 156.172 9.84442C151.235 4.89768 144.538 2.11828 137.555 2.11828H123.979L123.524 4.00849C128.026 6.31259 131.806 9.81845 134.446 14.1393C137.086 18.4603 138.483 23.4281 138.483 28.4946C138.483 33.5611 137.086 38.529 134.446 42.8499C131.806 47.1708 128.026 50.6767 123.524 52.9808ZM36.3247 47.1448C41.2619 52.0916 47.9585 54.871 54.9415 54.871H59.6206C66.6036 54.871 73.3002 52.0916 78.2373 47.1448C83.1744 42.1982 85.9477 35.4894 85.9477 28.4946C85.9477 21.4998 83.1744 14.7911 78.2373 9.84442C73.3002 4.89768 66.6036 2.11828 59.6206 2.11828H54.9415C47.9585 2.11828 41.2619 4.89768 36.3247 9.84442C31.3876 14.7911 28.6144 21.4998 28.6144 28.4946C28.6144 35.4894 31.3876 42.1982 36.3247 47.1448Z" fill="#E20080" stroke="#E20080" stroke-width="2"/>
</svg>
