<svg width="141" height="44" viewBox="0 0 141 44" fill="none" xmlns="http://www.w3.org/2000/svg">
<g clip-path="url(#clip0_1403_8046)">
<path d="M43.838 15.3997H48.515L46.204 9.08682L43.838 15.3997ZM49.2395 17.3866H43.1104L41.3848 21.9395H39.2021L45.1891 6.55335H47.2204L53.186 21.9395H50.9147L49.2395 17.3866Z" fill="#00BBB6"/>
<path d="M58.698 19.5346L63.0648 6.55384H65.2245L59.7021 21.9399H57.6938L52.1699 6.55384H54.3312L58.698 19.5346Z" fill="#00BBB6"/>
<path d="M68.318 15.4002H72.9951L70.684 9.08731L68.318 15.4002ZM73.7196 17.3871H67.5889L65.8648 21.9399H63.6807L69.6692 6.55384H71.7005L77.666 21.9399H75.3947L73.7196 17.3871Z" fill="#00BBB6"/>
<path d="M81.1908 9.49903L81.3604 21.9395H79.3291V6.55335H81.4659L89.2304 18.6279L89.1036 6.55335H91.0921V21.9395H89.1403L81.1908 9.49903Z" fill="#00BBB6"/>
<path d="M98.1078 8.43377V21.9395H96.0979V8.43377H93.0303V6.55335H101.197V8.43377H98.1078Z" fill="#00BBB6"/>
<path d="M104.479 15.3997H109.156L106.845 9.08682L104.479 15.3997ZM109.881 17.3866H103.75L102.026 21.9395H99.8418L105.83 6.55335H107.862L113.827 21.9395H111.556L109.881 17.3866Z" fill="#00BBB6"/>
<mask id="mask0_1403_8046" style="mask-type:luminance" maskUnits="userSpaceOnUse" x="0" y="0" width="141" height="44">
<path d="M0 0H141V44H0V0Z" fill="white"/>
</mask>
<g mask="url(#mask0_1403_8046)">
<path d="M119.773 16.2337V14.2885H129.124C128.956 16.7247 128.228 18.6344 126.944 20.0162C125.576 21.4983 123.707 22.2378 121.338 22.2378C119.039 22.2378 117.171 21.469 115.732 19.9313C114.307 18.4337 113.595 16.5193 113.595 14.1819C113.595 11.9603 114.364 10.083 115.901 8.55148C117.439 7.01997 119.307 6.25421 121.508 6.25421C124.71 6.25421 126.917 7.60046 128.129 10.293H125.59C124.801 8.95442 123.383 8.28439 121.338 8.28439C119.814 8.28439 118.496 8.87878 117.382 10.0691C116.268 11.2579 115.71 12.6288 115.71 14.1819C115.71 15.9342 116.218 17.3808 117.234 18.5202C118.25 19.6595 119.617 20.2292 121.338 20.2292C124.13 20.2292 125.935 18.8984 126.755 16.2337H119.773Z" fill="#00BBB6"/>
<path d="M138.919 19.9947V21.9399H131.092V6.55229H138.919V8.39103H133.123V13.3051H138.919V15.1006H133.123V19.9947H138.919Z" fill="#00BBB6"/>
<path d="M13.836 33.6696C13.5105 33.7175 13.1803 33.7437 12.8548 33.7437C9.73059 33.7422 7.04051 31.4727 6.59878 28.4622C6.10051 25.0657 8.53534 21.8791 12.0279 21.3558C12.6102 21.2678 13.1956 21.2709 13.7718 21.3403C12.6652 20.7598 11.4134 20.4279 10.0806 20.4279C5.64809 20.4279 2.05469 24.0575 2.05469 28.5347C2.05469 33.0119 5.64809 36.6431 10.0806 36.6431C13.3011 36.6431 16.0722 34.721 17.3499 31.9559C16.3885 32.8668 15.1673 33.4704 13.836 33.6696Z" fill="#00BBB6"/>
<path d="M15.1421 23.3635C12.4841 24.0428 11.7627 26.09 11.9537 27.6338C12.1478 29.2055 13.3416 30.896 15.5043 30.896C15.729 30.896 15.9598 30.8759 16.1937 30.8389C16.6232 30.7709 17.0267 30.6428 17.3966 30.4591L17.9392 30.1874C18.0492 29.6532 18.1073 29.102 18.1073 28.5354C18.1073 26.5686 17.4134 24.7669 16.2609 23.3635C15.9048 23.3048 15.486 23.2755 15.1421 23.3635Z" fill="#00BBB6"/>
<path d="M26.3575 20.4274C23.6506 20.4274 21.2601 21.786 19.8066 23.861C19.7668 24.091 19.7408 24.3257 19.7408 24.5681C19.7408 26.7912 21.523 28.5914 23.724 28.5914C25.9234 28.5914 27.7072 26.7912 27.7072 24.5681C27.7072 23.9906 27.5849 23.4426 27.3663 22.947C28.5157 23.9675 29.2417 25.4589 29.2417 27.1262C29.2417 30.2031 26.7717 32.7011 23.724 32.6996C21.0905 32.6996 18.891 30.8361 18.3408 28.3443C18.3392 28.4076 18.3301 28.4709 18.3301 28.5342C18.3301 33.0114 21.925 36.6426 26.3575 36.6426C30.79 36.6426 34.3834 33.0114 34.3834 28.5342C34.3834 24.0586 30.79 20.4274 26.3575 20.4274Z" fill="#00BBB6"/>
<path d="M18.2183 6.17128C13.7858 6.17128 10.1924 9.8009 10.1924 14.2781C10.1924 18.5963 13.5366 22.1163 17.7506 22.3633C19.2943 21.051 19.6352 18.7476 18.4766 17.0262C17.2401 15.1874 14.764 14.7104 12.9421 15.9594C12.4698 16.2836 12.0907 16.6942 11.8064 17.1543C11.9975 15.6212 12.8106 14.1747 14.174 13.2391C16.6944 11.5084 20.1273 12.1707 21.8407 14.7165C23.3646 16.9798 23.0115 19.9718 21.1407 21.8245C24.1258 20.6419 26.2442 17.7132 26.2442 14.2781C26.2442 9.8009 22.6508 6.17128 18.2183 6.17128Z" fill="#00BBB6"/>
<path d="M54.9471 35.5316V36.4209H51.3721V29.3902H54.9471V30.23H52.2983V32.4763H54.9471V33.2961H52.2983V35.5316H54.9471Z" fill="#00BBB6"/>
<path d="M59.2813 35.3217L61.2759 29.3902H62.2633L59.7398 36.4209H58.8227L56.3008 29.3902H57.2866L59.2813 35.3217Z" fill="#00BBB6"/>
<path d="M67.2508 35.5316V36.4209H63.6758V29.3902H67.2508V30.23H64.602V32.4763H67.2508V33.2961H64.602V35.5316H67.2508Z" fill="#00BBB6"/>
<path d="M70.2381 30.737L70.3145 36.4199H69.3867V29.3907H70.3634L73.9109 34.9069L73.8513 29.3907H74.7608V36.4199H73.8697L70.2381 30.737Z" fill="#00BBB6"/>
<path d="M78.7816 30.2496V36.4204H77.863V30.2496H76.4629V29.3912H80.1938V30.2496H78.7816Z" fill="#00BBB6"/>
<path d="M86.467 30.23V32.711H87.2603C88.3043 32.711 88.8255 32.305 88.8255 31.4898C88.8255 30.65 88.3165 30.23 87.2985 30.23H86.467ZM86.467 33.5493V36.4209H85.5576V29.3902H87.4346C88.9737 29.3902 89.7441 30.0725 89.7441 31.4311C89.7441 32.1212 89.5087 32.6554 89.0379 33.0321C88.6069 33.3764 88.0398 33.5493 87.3367 33.5493H86.467Z" fill="#00BBB6"/>
<path d="M92.4401 33.0126L92.4982 33.0914H92.4401V33.0126ZM92.4401 30.2491V36.4199H91.5215V29.3907H93.5131C95.2066 29.3907 96.0549 30.1426 96.0549 31.6432C96.0549 32.2222 95.8577 32.7054 95.4634 33.0914C95.0675 33.4773 94.586 33.6719 94.0144 33.6719L96.009 36.4199H94.8566L92.4982 33.0914C93.4152 33.0914 94.0068 33.0497 94.2727 32.9648C94.8749 32.7749 95.176 32.3302 95.176 31.6278C95.176 30.7092 94.5371 30.2491 93.2655 30.2491H92.4401Z" fill="#00BBB6"/>
<path d="M103.836 32.8468C103.836 32.1381 103.581 31.516 103.067 30.9833C102.557 30.4491 101.949 30.1821 101.246 30.1821C100.542 30.1821 99.9341 30.4522 99.4206 30.9926C98.9024 31.5329 98.6456 32.1567 98.6456 32.8668C98.6456 33.6017 98.8963 34.2486 99.4007 34.8044C99.902 35.3617 100.518 35.6396 101.246 35.6396C102.007 35.6396 102.63 35.3617 103.121 34.8105C103.598 34.2748 103.836 33.6218 103.836 32.8468ZM104.813 32.8668C104.813 33.8889 104.471 34.7611 103.789 35.4837C103.104 36.2047 102.257 36.5659 101.246 36.5659C100.247 36.5659 99.4007 36.2031 98.7083 35.4729C98.0159 34.7442 97.6689 33.875 97.6689 32.8668C97.6689 31.8772 98.0235 31.0281 98.7327 30.3195C99.442 29.6093 100.286 29.2542 101.265 29.2542C102.251 29.2542 103.089 29.6062 103.778 30.3148C104.468 31.0204 104.813 31.8695 104.813 32.8668Z" fill="#00BBB6"/>
<path d="M108.89 29.391H109.809V34.3607C109.809 35.0385 109.657 35.5649 109.353 35.9432C109.02 36.3523 108.526 36.5576 107.875 36.5576C107.334 36.5576 106.909 36.4248 106.599 36.1578C106.266 35.8644 106.098 35.4507 106.098 34.918H107.006C107.006 35.4383 107.302 35.6992 107.895 35.6992C108.308 35.6992 108.588 35.5557 108.736 35.2685C108.84 35.0678 108.89 34.7451 108.89 34.302V29.391Z" fill="#00BBB6"/>
<path d="M115.503 35.5316V36.4209H111.928V29.3902H115.503V30.23H112.854V32.4763H115.503V33.2961H112.854V35.5316H115.503Z" fill="#00BBB6"/>
<path d="M122.78 34.741H123.94C123.355 35.9529 122.326 36.5581 120.857 36.5581C119.858 36.5581 119.018 36.1953 118.338 35.4743C117.66 34.7502 117.32 33.8811 117.32 32.8667C117.32 31.8848 117.669 31.0357 118.369 30.324C119.067 29.6107 119.903 29.2556 120.875 29.2556C121.566 29.2556 122.175 29.4116 122.704 29.7234C123.257 30.0476 123.67 30.5201 123.94 31.1392H122.84C122.367 30.5015 121.709 30.182 120.857 30.182C120.16 30.182 119.559 30.4537 119.049 30.9925C118.54 31.5328 118.286 32.1581 118.286 32.8667C118.286 33.6032 118.531 34.2439 119.02 34.7904C119.523 35.357 120.136 35.6395 120.857 35.6395C121.709 35.6395 122.349 35.3415 122.78 34.741Z" fill="#00BBB6"/>
<path d="M127.653 30.2496V36.4204H126.736V30.2496H125.334V29.3912H129.065V30.2496H127.653Z" fill="#00BBB6"/>
</g>
</g>
<defs>
<clipPath id="clip0_1403_8046">
<rect width="141" height="44" fill="white"/>
</clipPath>
</defs>
</svg>
