<svg width="64" height="60" viewBox="0 0 64 60" fill="none" xmlns="http://www.w3.org/2000/svg">
<path d="M27.5847 27.7196C27.2529 27.7683 26.9172 27.7937 26.5845 27.7937C23.4033 27.7927 20.6661 25.5044 20.2153 22.4696C19.7078 19.0474 22.1884 15.834 25.7433 15.3071C26.3366 15.2183 26.9328 15.2212 27.5193 15.2914C26.3932 14.7069 25.1178 14.3712 23.7614 14.3712C19.2482 14.3712 15.5889 18.0306 15.5889 22.5438C15.5889 27.057 19.2482 30.7163 23.7614 30.7163C27.0411 30.7163 29.8613 28.7793 31.163 25.9914C30.1833 26.9096 28.9401 27.5185 27.5847 27.7196Z" fill="#00BBB6"/>
<path d="M28.9136 17.3309C26.2067 18.0169 25.4729 20.0789 25.6671 21.6363C25.8642 23.2191 27.0801 24.9238 29.2825 24.9229C29.5108 24.9229 29.747 24.9043 29.9851 24.8672C30.4213 24.7979 30.8321 24.6691 31.2088 24.4837L31.7621 24.2095C31.8733 23.6718 31.9328 23.1146 31.9328 22.5438C31.9328 20.5619 31.2263 18.7459 30.0534 17.3309C29.6904 17.2714 29.263 17.2431 28.9136 17.3309Z" fill="#00BBB6"/>
<path d="M40.3327 14.3712C37.576 14.3712 35.1433 15.7403 33.6629 17.8315C33.621 18.0638 33.5946 18.3009 33.5946 18.5448C33.5946 20.7853 35.4106 22.6013 37.6511 22.6013C39.8906 22.6013 41.7067 20.7853 41.7067 18.5448C41.7076 17.9633 41.5817 17.4109 41.3602 16.9103C42.5293 17.9408 43.2699 19.4436 43.2699 21.123C43.2699 24.2261 40.7542 26.7427 37.6511 26.7427C34.9696 26.7427 32.731 24.8623 32.1699 22.3506C32.168 22.4159 32.1602 22.4794 32.1602 22.5438C32.1602 27.057 35.8195 30.7163 40.3327 30.7163C44.8459 30.7163 48.5043 27.057 48.5043 22.5438C48.5043 18.0306 44.8459 14.3712 40.3327 14.3712Z" fill="#00BBB6"/>
<path d="M32.0475 0.000127792C27.5343 0.000127792 23.875 3.65947 23.875 8.17266C23.875 12.5248 27.2806 16.0729 31.5713 16.3218C33.1424 14.9995 33.4898 12.6771 32.311 10.9421C31.0522 9.08896 28.5297 8.60788 26.6756 9.86767C26.1945 10.1936 25.8081 10.6073 25.5193 11.0718C25.7135 9.52613 26.541 8.06825 27.9296 7.12463C30.496 5.38083 33.9914 6.04731 35.7362 8.61373C37.2877 10.8962 36.9276 13.9115 35.0228 15.7782C38.0635 14.5877 40.2201 11.6349 40.2201 8.17266C40.2201 3.65947 36.5607 0.000127792 32.0475 0.000127792Z" fill="#00BBB6"/>
<path d="M2.94504 46.6911H5.91545L4.44781 42.7214L2.94504 46.6911ZM6.37604 47.9411H2.4825L1.38665 50.8032H0L3.80279 41.1279H5.09283L8.88196 50.8032H7.43969L6.37604 47.9411Z" fill="#00BBB6"/>
<path d="M12.3846 49.2907L15.1579 41.1279H16.5299L13.0228 50.8032H11.7464L8.23926 41.1279H9.61127L12.3846 49.2907Z" fill="#00BBB6"/>
<path d="M18.4929 46.6911H21.4633L19.9957 42.7214L18.4929 46.6911ZM21.9239 47.9411H18.0304L16.9345 50.8032H15.5479L19.3506 41.1279H20.6407L24.4298 50.8032H22.9875L21.9239 47.9411Z" fill="#00BBB6"/>
<path d="M26.67 42.9805L26.7773 50.8027H25.4873V41.1274H26.8447L31.7765 48.7203L31.6955 41.1274H32.9582V50.8027H31.7189L26.67 42.9805Z" fill="#00BBB6"/>
<path d="M37.4136 42.3106V50.8032H36.1372V42.3106H34.1885V41.1279H39.375V42.3106H37.4136Z" fill="#00BBB6"/>
<path d="M41.4597 46.6911H44.4301L42.9625 42.7214L41.4597 46.6911ZM44.8907 47.9411H40.9971L39.9013 50.8032H38.5146L42.3174 41.1279H43.6075L47.3966 50.8032H45.9543L44.8907 47.9411Z" fill="#00BBB6"/>
<path d="M51.1738 47.2153V45.9925H57.1127C57.0053 47.5236 56.5447 48.7249 55.7289 49.5933C54.8605 50.5253 53.6729 50.9907 52.1682 50.9907C50.7083 50.9907 49.5207 50.5077 48.6074 49.5397C47.7018 48.599 47.25 47.3948 47.25 45.9252C47.25 44.5278 47.7379 43.3471 48.7147 42.3839C49.6915 41.4218 50.8781 40.9397 52.2755 40.9397C54.3091 40.9397 55.7114 41.7867 56.4813 43.4788H54.8692C54.3677 42.6377 53.467 42.2171 52.1682 42.2171C51.2001 42.2171 50.3629 42.5908 49.6554 43.3383C48.9479 44.0868 48.5937 44.9484 48.5937 45.9252C48.5937 47.0269 48.9167 47.9364 49.5617 48.6526C50.2067 49.3699 51.0752 49.728 52.1682 49.728C53.9422 49.728 55.0888 48.8907 55.6079 47.2153H51.1738Z" fill="#00BBB6"/>
<path d="M63.3341 49.58V50.8027H58.3623V41.1274H63.3341V42.2838H59.6523V45.3742H63.3341V46.5032H59.6523V49.58H63.3341Z" fill="#00BBB6"/>
<path d="M10.0012 59.35V59.9092H7.73047V55.4887H10.0012V56.0166H8.31889V57.4286H10.0012V57.9448H8.31889V59.35H10.0012Z" fill="#00BBB6"/>
<path d="M12.7544 59.2173L14.021 55.4877H14.6485L13.0462 59.9082H12.4627L10.8613 55.4877H11.4878L12.7544 59.2173Z" fill="#00BBB6"/>
<path d="M17.8157 59.35V59.9092H15.5449V55.4887H17.8157V56.0166H16.1333V57.4286H17.8157V57.9448H16.1333V59.35H17.8157Z" fill="#00BBB6"/>
<path d="M19.7135 56.3347L19.7622 59.9082H19.1729V55.4887H19.7925L22.0457 58.9568L22.0086 55.4887H22.5863V59.9082H22.0193L19.7135 56.3347Z" fill="#00BBB6"/>
<path d="M25.1395 56.0283V59.9082H24.556V56.0283H23.667V55.4887H26.0363V56.0283H25.1395Z" fill="#00BBB6"/>
<path d="M30.021 56.0156V57.576H30.5246C31.1881 57.576 31.5189 57.3203 31.5189 56.808C31.5189 56.2801 31.195 56.0156 30.549 56.0156H30.021ZM30.021 58.1029V59.9082H29.4434V55.4877H30.6348C31.6126 55.4877 32.1015 55.9161 32.1015 56.7709C32.1015 57.2052 31.9522 57.5409 31.6536 57.778C31.3794 57.9946 31.0203 58.1029 30.5734 58.1029H30.021Z" fill="#00BBB6"/>
<path d="M33.814 57.7653L33.8501 57.8151H33.814V57.7653ZM33.814 56.0283V59.9082H33.2305V55.4877H34.4961C35.5715 55.4877 36.1101 55.96 36.1101 56.9036C36.1101 57.2676 35.9842 57.5721 35.7335 57.8151C35.4827 58.0571 35.1763 58.18 34.8133 58.18L36.0809 59.9082H35.348L33.8501 57.8151C34.4337 57.8151 34.8094 57.7887 34.9782 57.735C35.3597 57.616 35.551 57.3359 35.551 56.8939C35.551 56.3172 35.146 56.0283 34.338 56.0283H33.814Z" fill="#00BBB6"/>
<path d="M41.0527 57.6614C41.0527 57.2155 40.8907 56.8242 40.5648 56.4895C40.2398 56.1538 39.8534 55.9859 39.4075 55.9859C38.9615 55.9859 38.5751 56.1557 38.2482 56.4953C37.9193 56.8349 37.7564 57.2282 37.7564 57.6741C37.7564 58.1367 37.9154 58.5426 38.2355 58.8929C38.5536 59.2423 38.9449 59.4179 39.4075 59.4179C39.8905 59.4179 40.2867 59.2432 40.5989 58.8959C40.9015 58.5602 41.0527 58.1493 41.0527 57.6614ZM41.6733 57.6741C41.6733 58.3172 41.4557 58.8646 41.0225 59.3194C40.5882 59.7731 40.0505 60.0005 39.4075 60.0005C38.7732 60.0005 38.2355 59.7721 37.7964 59.3135C37.3563 58.8549 37.1357 58.3084 37.1357 57.6741C37.1357 57.0525 37.3612 56.5178 37.812 56.0718C38.2618 55.6259 38.7976 55.4024 39.4201 55.4024C40.0466 55.4024 40.5775 55.6239 41.0166 56.0689C41.4538 56.5129 41.6733 57.0476 41.6733 57.6741Z" fill="#00BBB6"/>
<path d="M44.2623 55.4888H44.8459V58.6133C44.8459 59.0398 44.7502 59.3716 44.557 59.6087C44.3443 59.8663 44.0311 59.9951 43.6183 59.9951C43.2748 59.9951 43.0045 59.9112 42.8074 59.7434C42.5956 59.5589 42.4883 59.2984 42.4883 58.9637H43.066C43.066 59.2915 43.2533 59.4545 43.63 59.4545C43.8925 59.4545 44.0701 59.3647 44.1647 59.1842C44.2301 59.0583 44.2623 58.8554 44.2623 58.5772V55.4888Z" fill="#00BBB6"/>
<path d="M48.4612 59.35V59.9092H46.1904V55.4887H48.4612V56.0166H46.7789V57.4286H48.4612V57.9448H46.7789V59.35H48.4612Z" fill="#00BBB6"/>
<path d="M53.0843 58.8524H53.821C53.4493 59.6136 52.7964 59.9951 51.8635 59.9951C51.2283 59.9951 50.6955 59.7668 50.2632 59.313C49.8319 58.8583 49.6162 58.3118 49.6162 57.6736C49.6162 57.0559 49.8377 56.5231 50.2827 56.0752C50.7257 55.6263 51.2566 55.4029 51.8752 55.4029C52.3134 55.4029 52.6998 55.5005 53.0355 55.6976C53.3878 55.9015 53.6493 56.1982 53.821 56.5875H53.1214C52.8228 56.1865 52.4032 55.9855 51.8635 55.9855C51.4205 55.9855 51.038 56.1562 50.715 56.4958C50.392 56.8354 50.23 57.2277 50.23 57.6736C50.23 58.1362 50.3852 58.5402 50.6964 58.8837C51.0165 59.2389 51.4049 59.4174 51.8635 59.4174C52.4032 59.4174 52.8111 59.2291 53.0843 58.8524Z" fill="#00BBB6"/>
<path d="M56.1776 56.0283V59.9082H55.595V56.0283H54.7051V55.4887H57.0744V56.0283H56.1776Z" fill="#00BBB6"/>
</svg>
