<svg width="375" height="2057" viewBox="0 0 375 2057" fill="none" xmlns="http://www.w3.org/2000/svg">
<rect x="175.416" y="0.472656" width="61.7787" height="431.922" rx="30.8894" transform="rotate(45 175.416 0.472656)" fill="#E20080"/>
<rect x="115.416" y="1707.47" width="61.7787" height="431.922" rx="30.8894" transform="rotate(45 115.416 1707.47)" fill="#E20080"/>
<rect x="122.416" y="724.473" width="61.7787" height="356.777" rx="30.8894" transform="rotate(45 122.416 724.473)" fill="#80FF00"/>
<rect x="503.279" y="1374.47" width="61.7787" height="356.777" rx="30.8894" transform="rotate(45 503.279 1374.47)" fill="#8751FF"/>
<rect x="503.279" y="931.473" width="61.7787" height="356.777" rx="30.8894" transform="rotate(45 503.279 931.473)" fill="#80FF00"/>
<rect x="420.248" y="299.473" width="17.2612" height="249.253" rx="8.63062" transform="rotate(45 420.248 299.473)" fill="#463CFF"/>
<rect x="418.248" y="975.473" width="17.2612" height="142.827" rx="8.63062" transform="rotate(45 418.248 975.473)" fill="#00BBB6"/>
<rect x="76.0195" y="1346.06" width="17.2612" height="188.543" rx="8.63062" transform="rotate(45 76.0195 1346.06)" fill="#463CFF"/>
</svg>
