<svg width="1920" height="597" viewBox="0 0 1920 597" fill="none" xmlns="http://www.w3.org/2000/svg">
<g opacity="0.15">
<mask id="path-1-outside-1_2024_3508" maskUnits="userSpaceOnUse" x="27" y="63" width="1844" height="339" fill="black">
<rect fill="white" x="27" y="63" width="1844" height="339"/>
<path d="M28.0391 353V65H82.4391V183.4H211.239V65H265.639V353H211.239V234.2H82.4391V353H28.0391ZM289.789 353L377.789 65H458.989L546.989 353H490.989L412.589 99H422.989L345.789 353H289.789ZM342.589 293V242.2H494.589V293H342.589ZM570.836 353V65H758.836V115.8H625.236V353H570.836ZM778.758 353V65H900.358C903.158 65 906.891 65.1333 911.558 65.4C916.358 65.5333 920.624 65.9333 924.358 66.6C941.558 69.2667 955.624 74.9333 966.558 83.6C977.624 92.2666 985.758 103.2 990.958 116.4C996.158 129.467 998.758 144.067 998.758 160.2C998.758 176.333 996.091 191 990.758 204.2C985.558 217.267 977.424 228.133 966.358 236.8C955.424 245.467 941.424 251.133 924.358 253.8C920.624 254.333 916.358 254.733 911.558 255C906.758 255.267 903.024 255.4 900.358 255.4H833.158V353H778.758ZM833.158 204.6H897.958C900.758 204.6 903.824 204.467 907.158 204.2C910.491 203.933 913.558 203.4 916.358 202.6C923.691 200.6 929.358 197.267 933.358 192.6C937.358 187.8 940.091 182.533 941.558 176.8C943.158 170.933 943.958 165.4 943.958 160.2C943.958 155 943.158 149.533 941.558 143.8C940.091 137.933 937.358 132.667 933.358 128C929.358 123.2 923.691 119.8 916.358 117.8C913.558 117 910.491 116.467 907.158 116.2C903.824 115.933 900.758 115.8 897.958 115.8H833.158V204.6ZM983.086 353L1071.09 65H1152.29L1240.29 353H1184.29L1105.89 99H1116.29L1039.09 353H983.086ZM1035.89 293V242.2H1187.89V293H1035.89ZM1260.24 401V302.2C1268.91 302.2 1276.24 300.067 1282.24 295.8C1288.38 291.4 1293.38 285.267 1297.24 277.4C1301.11 269.4 1304.18 260.067 1306.44 249.4C1308.71 238.733 1310.38 227.133 1311.44 214.6C1312.78 198.6 1313.98 182.867 1315.04 167.4C1316.11 151.8 1317.18 135.667 1318.24 119C1319.31 102.2 1320.51 84.0667 1321.84 64.6L1513.04 65V302.2H1535.04V401H1480.64V353H1314.64V401H1260.24ZM1341.44 302.2H1458.64V115.8L1371.44 115.4C1370.51 128.6 1369.71 140.733 1369.04 151.8C1368.51 162.867 1367.84 174.067 1367.04 185.4C1366.24 196.733 1365.18 209.4 1363.84 223.4C1362.51 237.4 1361.18 248.933 1359.84 258C1358.51 266.933 1356.44 274.733 1353.64 281.4C1350.98 288.067 1346.91 295 1341.44 302.2ZM1566.58 353V65H1620.98V162.6H1688.18C1690.84 162.6 1694.58 162.733 1699.38 163C1704.18 163.133 1708.44 163.533 1712.18 164.2C1729.24 166.867 1743.24 172.533 1754.18 181.2C1765.24 189.867 1773.38 200.8 1778.58 214C1783.91 227.067 1786.58 241.667 1786.58 257.8C1786.58 273.933 1783.98 288.6 1778.78 301.8C1773.58 314.867 1765.44 325.733 1754.38 334.4C1743.44 343.067 1729.38 348.733 1712.18 351.4C1708.44 351.933 1704.18 352.333 1699.38 352.6C1694.71 352.867 1690.98 353 1688.18 353H1566.58ZM1620.98 302.2H1685.78C1688.58 302.2 1691.64 302.067 1694.98 301.8C1698.31 301.533 1701.38 301 1704.18 300.2C1711.51 298.2 1717.18 294.867 1721.18 290.2C1725.18 285.4 1727.91 280.133 1729.38 274.4C1730.98 268.533 1731.78 263 1731.78 257.8C1731.78 252.6 1730.98 247.133 1729.38 241.4C1727.91 235.533 1725.18 230.267 1721.18 225.6C1717.18 220.8 1711.51 217.4 1704.18 215.4C1701.38 214.6 1698.31 214.067 1694.98 213.8C1691.64 213.533 1688.58 213.4 1685.78 213.4H1620.98V302.2ZM1815.38 353V65H1869.78V353H1815.38Z"/>
</mask>
<path d="M28.0391 353H27.0391V354H28.0391V353ZM28.0391 65V64H27.0391V65H28.0391ZM82.4391 65H83.4391V64H82.4391V65ZM82.4391 183.4H81.4391V184.4H82.4391V183.4ZM211.239 183.4V184.4H212.239V183.4H211.239ZM211.239 65V64H210.239V65H211.239ZM265.639 65H266.639V64H265.639V65ZM265.639 353V354H266.639V353H265.639ZM211.239 353H210.239V354H211.239V353ZM211.239 234.2H212.239V233.2H211.239V234.2ZM82.4391 234.2V233.2H81.4391V234.2H82.4391ZM82.4391 353V354H83.4391V353H82.4391ZM29.0391 353V65H27.0391V353H29.0391ZM28.0391 66H82.4391V64H28.0391V66ZM81.4391 65V183.4H83.4391V65H81.4391ZM82.4391 184.4H211.239V182.4H82.4391V184.4ZM212.239 183.4V65H210.239V183.4H212.239ZM211.239 66H265.639V64H211.239V66ZM264.639 65V353H266.639V65H264.639ZM265.639 352H211.239V354H265.639V352ZM212.239 353V234.2H210.239V353H212.239ZM211.239 233.2H82.4391V235.2H211.239V233.2ZM81.4391 234.2V353H83.4391V234.2H81.4391ZM82.4391 352H28.0391V354H82.4391V352ZM289.789 353L288.833 352.708L288.438 354H289.789V353ZM377.789 65V64H377.049L376.833 64.7078L377.789 65ZM458.989 65L459.945 64.7078L459.729 64H458.989V65ZM546.989 353V354H548.34L547.945 352.708L546.989 353ZM490.989 353L490.034 353.295L490.251 354H490.989V353ZM412.589 99V98H411.234L411.634 99.2949L412.589 99ZM422.989 99L423.946 99.2908L424.338 98H422.989V99ZM345.789 353V354H346.53L346.746 353.291L345.789 353ZM342.589 293H341.589V294H342.589V293ZM342.589 242.2V241.2H341.589V242.2H342.589ZM494.589 242.2H495.589V241.2H494.589V242.2ZM494.589 293V294H495.589V293H494.589ZM290.745 353.292L378.745 65.2922L376.833 64.7078L288.833 352.708L290.745 353.292ZM377.789 66H458.989V64H377.789V66ZM458.033 65.2922L546.033 353.292L547.945 352.708L459.945 64.7078L458.033 65.2922ZM546.989 352H490.989V354H546.989V352ZM491.945 352.705L413.545 98.705L411.634 99.2949L490.034 353.295L491.945 352.705ZM412.589 100H422.989V98H412.589V100ZM422.032 98.7092L344.832 352.709L346.746 353.291L423.946 99.2908L422.032 98.7092ZM345.789 352H289.789V354H345.789V352ZM343.589 293V242.2H341.589V293H343.589ZM342.589 243.2H494.589V241.2H342.589V243.2ZM493.589 242.2V293H495.589V242.2H493.589ZM494.589 292H342.589V294H494.589V292ZM570.836 353H569.836V354H570.836V353ZM570.836 65V64H569.836V65H570.836ZM758.836 65H759.836V64H758.836V65ZM758.836 115.8V116.8H759.836V115.8H758.836ZM625.236 115.8V114.8H624.236V115.8H625.236ZM625.236 353V354H626.236V353H625.236ZM571.836 353V65H569.836V353H571.836ZM570.836 66H758.836V64H570.836V66ZM757.836 65V115.8H759.836V65H757.836ZM758.836 114.8H625.236V116.8H758.836V114.8ZM624.236 115.8V353H626.236V115.8H624.236ZM625.236 352H570.836V354H625.236V352ZM778.758 353H777.758V354H778.758V353ZM778.758 65V64H777.758V65H778.758ZM911.558 65.4L911.501 66.3984L911.515 66.3992L911.53 66.3996L911.558 65.4ZM924.358 66.6L924.182 67.5844L924.193 67.5864L924.205 67.5882L924.358 66.6ZM966.558 83.6L965.937 84.3836L965.941 84.3873L966.558 83.6ZM990.958 116.4L990.027 116.767L990.029 116.77L990.958 116.4ZM990.758 204.2L989.831 203.825L989.829 203.83L990.758 204.2ZM966.358 236.8L965.741 236.013L965.737 236.016L966.358 236.8ZM924.358 253.8L924.499 254.79L924.512 254.788L924.358 253.8ZM911.558 255L911.613 255.998L911.558 255ZM833.158 255.4V254.4H832.158V255.4H833.158ZM833.158 353V354H834.158V353H833.158ZM833.158 204.6H832.158V205.6H833.158V204.6ZM907.158 204.2L907.238 205.197L907.158 204.2ZM916.358 202.6L916.095 201.635L916.083 201.638L916.358 202.6ZM933.358 192.6L934.117 193.251L934.126 193.24L933.358 192.6ZM941.558 176.8L940.593 176.537L940.591 176.544L940.589 176.552L941.558 176.8ZM941.558 143.8L940.588 144.043L940.591 144.056L940.595 144.069L941.558 143.8ZM933.358 128L932.59 128.64L932.599 128.651L933.358 128ZM916.358 117.8L916.083 118.762L916.095 118.765L916.358 117.8ZM907.158 116.2L907.078 117.197L907.158 116.2ZM833.158 115.8V114.8H832.158V115.8H833.158ZM779.758 353V65H777.758V353H779.758ZM778.758 66H900.358V64H778.758V66ZM900.358 66C903.13 66 906.842 66.1322 911.501 66.3984L911.615 64.4016C906.94 64.1345 903.185 64 900.358 64V66ZM911.53 66.3996C916.293 66.5319 920.508 66.9284 924.182 67.5844L924.534 65.6156C920.741 64.9382 916.423 64.5347 911.586 64.4004L911.53 66.3996ZM924.205 67.5882C941.275 70.2348 955.169 75.8481 965.937 84.3836L967.179 82.8163C956.08 74.0186 941.84 68.2985 924.511 65.6118L924.205 67.5882ZM965.941 84.3873C976.866 92.9431 984.892 103.731 990.027 116.767L991.888 116.033C986.624 102.669 978.383 91.5902 967.174 82.8127L965.941 84.3873ZM990.029 116.77C995.175 129.703 997.758 144.175 997.758 160.2H999.758C999.758 143.958 997.14 129.231 991.887 116.03L990.029 116.77ZM997.758 160.2C997.758 176.222 995.11 190.759 989.831 203.825L991.685 204.575C997.072 191.241 999.758 176.445 999.758 160.2H997.758ZM989.829 203.83C984.694 216.733 976.669 227.455 965.741 236.013L966.974 237.587C978.18 228.811 986.422 217.801 991.687 204.57L989.829 203.83ZM965.737 236.016C954.967 244.553 941.14 250.166 924.203 252.812L924.512 254.788C941.709 252.101 955.882 246.38 966.979 237.584L965.737 236.016ZM924.216 252.81C920.518 253.338 916.281 253.736 911.502 254.002L911.613 255.998C916.435 255.731 920.731 255.328 924.499 254.79L924.216 252.81ZM911.502 254.002C906.709 254.268 902.997 254.4 900.358 254.4V256.4C903.052 256.4 906.807 256.265 911.613 255.998L911.502 254.002ZM900.358 254.4H833.158V256.4H900.358V254.4ZM832.158 255.4V353H834.158V255.4H832.158ZM833.158 352H778.758V354H833.158V352ZM833.158 205.6H897.958V203.6H833.158V205.6ZM897.958 205.6C900.789 205.6 903.883 205.465 907.238 205.197L907.078 203.203C903.766 203.468 900.727 203.6 897.958 203.6V205.6ZM907.238 205.197C910.627 204.926 913.76 204.382 916.633 203.562L916.083 201.638C913.355 202.418 910.355 202.941 907.078 203.203L907.238 205.197ZM916.621 203.565C924.101 201.525 929.959 198.102 934.117 193.251L932.599 191.949C928.757 196.431 923.281 199.675 916.095 201.635L916.621 203.565ZM934.126 193.24C938.216 188.332 941.021 182.933 942.527 177.048L940.589 176.552C939.161 182.133 936.5 187.268 932.59 191.96L934.126 193.24ZM942.523 177.063C944.142 171.125 944.958 165.502 944.958 160.2H942.958C942.958 165.298 942.174 170.742 940.593 176.537L942.523 177.063ZM944.958 160.2C944.958 154.897 944.142 149.34 942.521 143.531L940.595 144.069C942.174 149.727 942.958 155.103 942.958 160.2H944.958ZM942.528 143.557C941.023 137.538 938.216 132.132 934.117 127.349L932.599 128.651C936.499 133.202 939.159 138.329 940.588 144.043L942.528 143.557ZM934.126 127.36C929.969 122.371 924.108 118.877 916.621 116.835L916.095 118.765C923.274 120.723 928.747 124.029 932.59 128.64L934.126 127.36ZM916.633 116.838C913.76 116.018 910.627 115.474 907.238 115.203L907.078 117.197C910.355 117.459 913.355 117.982 916.083 118.762L916.633 116.838ZM907.238 115.203C903.883 114.935 900.789 114.8 897.958 114.8V116.8C900.727 116.8 903.766 116.932 907.078 117.197L907.238 115.203ZM897.958 114.8H833.158V116.8H897.958V114.8ZM832.158 115.8V204.6H834.158V115.8H832.158ZM983.086 353L982.13 352.708L981.735 354H983.086V353ZM1071.09 65V64H1070.35L1070.13 64.7078L1071.09 65ZM1152.29 65L1153.24 64.7078L1153.03 64H1152.29V65ZM1240.29 353V354H1241.64L1241.24 352.708L1240.29 353ZM1184.29 353L1183.33 353.295L1183.55 354H1184.29V353ZM1105.89 99V98H1104.53L1104.93 99.2949L1105.89 99ZM1116.29 99L1117.24 99.2908L1117.64 98H1116.29V99ZM1039.09 353V354H1039.83L1040.04 353.291L1039.09 353ZM1035.89 293H1034.89V294H1035.89V293ZM1035.89 242.2V241.2H1034.89V242.2H1035.89ZM1187.89 242.2H1188.89V241.2H1187.89V242.2ZM1187.89 293V294H1188.89V293H1187.89ZM984.042 353.292L1072.04 65.2922L1070.13 64.7078L982.13 352.708L984.042 353.292ZM1071.09 66H1152.29V64H1071.09V66ZM1151.33 65.2922L1239.33 353.292L1241.24 352.708L1153.24 64.7078L1151.33 65.2922ZM1240.29 352H1184.29V354H1240.29V352ZM1185.24 352.705L1106.84 98.705L1104.93 99.2949L1183.33 353.295L1185.24 352.705ZM1105.89 100H1116.29V98H1105.89V100ZM1115.33 98.7092L1038.13 352.709L1040.04 353.291L1117.24 99.2908L1115.33 98.7092ZM1039.09 352H983.086V354H1039.09V352ZM1036.89 293V242.2H1034.89V293H1036.89ZM1035.89 243.2H1187.89V241.2H1035.89V243.2ZM1186.89 242.2V293H1188.89V242.2H1186.89ZM1187.89 292H1035.89V294H1187.89V292ZM1260.24 401H1259.24V402H1260.24V401ZM1260.24 302.2V301.2H1259.24V302.2H1260.24ZM1282.24 295.8L1282.82 296.615L1282.83 296.613L1282.24 295.8ZM1297.24 277.4L1298.14 277.841L1298.14 277.835L1297.24 277.4ZM1306.44 249.4L1305.46 249.192L1306.44 249.4ZM1311.44 214.6L1312.44 214.685L1312.44 214.683L1311.44 214.6ZM1315.04 167.4L1316.04 167.469L1316.04 167.468L1315.04 167.4ZM1318.24 119L1319.24 119.064L1319.24 119.063L1318.24 119ZM1321.84 64.6L1321.84 63.6L1320.91 63.598L1320.84 64.5317L1321.84 64.6ZM1513.04 65H1514.04V64.0021L1513.04 64L1513.04 65ZM1513.04 302.2H1512.04V303.2H1513.04V302.2ZM1535.04 302.2H1536.04V301.2H1535.04V302.2ZM1535.04 401V402H1536.04V401H1535.04ZM1480.64 401H1479.64V402H1480.64V401ZM1480.64 353H1481.64V352H1480.64V353ZM1314.64 353V352H1313.64V353H1314.64ZM1314.64 401V402H1315.64V401H1314.64ZM1341.44 302.2L1340.65 301.595L1339.43 303.2H1341.44V302.2ZM1458.64 302.2V303.2H1459.64V302.2H1458.64ZM1458.64 115.8H1459.64V114.805L1458.65 114.8L1458.64 115.8ZM1371.44 115.4L1371.45 114.4L1370.51 114.396L1370.44 115.329L1371.44 115.4ZM1369.04 151.8L1368.04 151.74L1368.04 151.752L1369.04 151.8ZM1367.04 185.4L1368.04 185.47L1367.04 185.4ZM1363.84 223.4L1364.84 223.495L1363.84 223.4ZM1359.84 258L1360.83 258.148L1360.83 258.145L1359.84 258ZM1353.64 281.4L1352.72 281.013L1352.72 281.021L1352.71 281.029L1353.64 281.4ZM1261.24 401V302.2H1259.24V401H1261.24ZM1260.24 303.2C1269.08 303.2 1276.62 301.022 1282.82 296.615L1281.66 294.985C1275.86 299.111 1268.74 301.2 1260.24 301.2V303.2ZM1282.83 296.613C1289.11 292.102 1294.21 285.832 1298.14 277.841L1296.34 276.959C1292.54 284.702 1287.64 290.698 1281.66 294.987L1282.83 296.613ZM1298.14 277.835C1302.05 269.749 1305.14 260.336 1307.42 249.608L1305.46 249.192C1303.21 259.797 1300.17 269.051 1296.34 276.965L1298.14 277.835ZM1307.42 249.608C1309.7 238.895 1311.37 227.253 1312.44 214.685L1310.45 214.515C1309.38 227.013 1307.72 238.572 1305.46 249.192L1307.42 249.608ZM1312.44 214.683C1313.77 198.678 1314.97 182.94 1316.04 167.469L1314.04 167.331C1312.98 182.793 1311.78 198.522 1310.45 214.517L1312.44 214.683ZM1316.04 167.468C1317.11 151.867 1318.17 135.732 1319.24 119.064L1317.24 118.936C1316.18 135.601 1315.11 151.733 1314.04 167.332L1316.04 167.468ZM1319.24 119.063C1320.31 102.265 1321.51 84.1336 1322.84 64.6683L1320.84 64.5317C1319.51 83.9997 1318.31 102.135 1317.24 118.937L1319.24 119.063ZM1321.84 65.6L1513.04 66L1513.04 64L1321.84 63.6L1321.84 65.6ZM1512.04 65V302.2H1514.04V65H1512.04ZM1513.04 303.2H1535.04V301.2H1513.04V303.2ZM1534.04 302.2V401H1536.04V302.2H1534.04ZM1535.04 400H1480.64V402H1535.04V400ZM1481.64 401V353H1479.64V401H1481.64ZM1480.64 352H1314.64V354H1480.64V352ZM1313.64 353V401H1315.64V353H1313.64ZM1314.64 400H1260.24V402H1314.64V400ZM1341.44 303.2H1458.64V301.2H1341.44V303.2ZM1459.64 302.2V115.8H1457.64V302.2H1459.64ZM1458.65 114.8L1371.45 114.4L1371.44 116.4L1458.64 116.8L1458.65 114.8ZM1370.44 115.329C1369.51 128.532 1368.71 140.669 1368.04 151.74L1370.04 151.86C1370.71 140.798 1371.51 128.668 1372.44 115.471L1370.44 115.329ZM1368.04 151.752C1367.51 162.811 1366.84 174.003 1366.04 185.33L1368.04 185.47C1368.84 174.13 1369.51 162.922 1370.04 151.848L1368.04 151.752ZM1366.04 185.33C1365.25 196.653 1364.18 209.311 1362.85 223.305L1364.84 223.495C1366.17 209.488 1367.24 196.814 1368.04 185.47L1366.04 185.33ZM1362.85 223.305C1361.51 237.296 1360.18 248.811 1358.85 257.854L1360.83 258.145C1362.17 249.056 1363.5 237.504 1364.84 223.495L1362.85 223.305ZM1358.85 257.852C1357.53 266.723 1355.48 274.439 1352.72 281.013L1354.56 281.787C1357.4 275.028 1359.49 267.144 1360.83 258.148L1358.85 257.852ZM1352.71 281.029C1350.09 287.594 1346.07 294.449 1340.65 301.595L1342.24 302.805C1347.75 295.551 1351.86 288.54 1354.57 281.771L1352.71 281.029ZM1566.58 353H1565.58V354H1566.58V353ZM1566.58 65V64H1565.58V65H1566.58ZM1620.98 65H1621.98V64H1620.98V65ZM1620.98 162.6H1619.98V163.6H1620.98V162.6ZM1699.38 163L1699.32 163.998L1699.33 163.999L1699.35 164L1699.38 163ZM1712.18 164.2L1712 165.184L1712.01 165.186L1712.02 165.188L1712.18 164.2ZM1754.18 181.2L1753.56 181.984L1753.56 181.987L1754.18 181.2ZM1778.58 214L1777.65 214.367L1777.65 214.378L1778.58 214ZM1778.78 301.8L1779.71 302.17L1779.71 302.167L1778.78 301.8ZM1754.38 334.4L1753.76 333.613L1753.76 333.616L1754.38 334.4ZM1712.18 351.4L1712.32 352.39L1712.33 352.388L1712.18 351.4ZM1699.38 352.6L1699.32 351.602L1699.32 351.602L1699.38 352.6ZM1620.98 302.2H1619.98V303.2H1620.98V302.2ZM1694.98 301.8L1694.9 300.803L1694.98 301.8ZM1704.18 300.2L1703.91 299.235L1703.9 299.238L1704.18 300.2ZM1721.18 290.2L1721.94 290.851L1721.94 290.84L1721.18 290.2ZM1729.38 274.4L1728.41 274.137L1728.41 274.145L1728.41 274.152L1729.38 274.4ZM1729.38 241.4L1728.41 241.643L1728.41 241.656L1728.41 241.669L1729.38 241.4ZM1721.18 225.6L1720.41 226.24L1720.42 226.251L1721.18 225.6ZM1704.18 215.4L1703.9 216.362L1703.91 216.365L1704.18 215.4ZM1694.98 213.8L1695.06 212.803L1694.98 213.8ZM1620.98 213.4V212.4H1619.98V213.4H1620.98ZM1815.38 353H1814.38V354H1815.38V353ZM1815.38 65V64H1814.38V65H1815.38ZM1869.78 65H1870.78V64H1869.78V65ZM1869.78 353V354H1870.78V353H1869.78ZM1567.58 353V65H1565.58V353H1567.58ZM1566.58 66H1620.98V64H1566.58V66ZM1619.98 65V162.6H1621.98V65H1619.98ZM1620.98 163.6H1688.18V161.6H1620.98V163.6ZM1688.18 163.6C1690.82 163.6 1694.53 163.732 1699.32 163.998L1699.43 162.002C1694.63 161.735 1690.87 161.6 1688.18 161.6V163.6ZM1699.35 164C1704.11 164.132 1708.33 164.528 1712 165.184L1712.35 163.216C1708.56 162.538 1704.24 162.135 1699.4 162L1699.35 164ZM1712.02 165.188C1728.96 167.834 1742.79 173.447 1753.56 181.984L1754.8 180.416C1743.7 171.62 1729.53 165.899 1712.33 163.212L1712.02 165.188ZM1753.56 181.987C1764.49 190.543 1772.51 201.331 1777.65 214.367L1779.51 213.633C1774.24 200.269 1766 189.19 1754.79 180.413L1753.56 181.987ZM1777.65 214.378C1782.93 227.309 1785.58 241.778 1785.58 257.8H1787.58C1787.58 241.555 1784.89 226.825 1779.5 213.622L1777.65 214.378ZM1785.58 257.8C1785.58 273.825 1782.99 288.365 1777.85 301.433L1779.71 302.167C1784.96 288.835 1787.58 274.042 1787.58 257.8H1785.58ZM1777.85 301.43C1772.71 314.333 1764.69 325.055 1753.76 333.613L1754.99 335.187C1766.2 326.411 1774.44 315.401 1779.71 302.17L1777.85 301.43ZM1753.76 333.616C1742.99 342.152 1729.09 347.765 1712.02 350.412L1712.33 352.388C1729.66 349.701 1743.9 343.981 1755 335.184L1753.76 333.616ZM1712.04 350.41C1708.34 350.938 1704.1 351.336 1699.32 351.602L1699.43 353.598C1704.25 353.331 1708.55 352.928 1712.32 352.39L1712.04 350.41ZM1699.32 351.602C1694.66 351.868 1690.95 352 1688.18 352V354C1691 354 1694.76 353.866 1699.43 353.598L1699.32 351.602ZM1688.18 352H1566.58V354H1688.18V352ZM1620.98 303.2H1685.78V301.2H1620.98V303.2ZM1685.78 303.2C1688.61 303.2 1691.7 303.065 1695.06 302.797L1694.9 300.803C1691.59 301.068 1688.55 301.2 1685.78 301.2V303.2ZM1695.06 302.797C1698.45 302.526 1701.58 301.982 1704.45 301.162L1703.9 299.238C1701.17 300.018 1698.17 300.541 1694.9 300.803L1695.06 302.797ZM1704.44 301.165C1711.92 299.125 1717.78 295.702 1721.94 290.851L1720.42 289.549C1716.58 294.031 1711.1 297.275 1703.91 299.235L1704.44 301.165ZM1721.94 290.84C1726.03 285.932 1728.84 280.533 1730.35 274.648L1728.41 274.152C1726.98 279.733 1724.32 284.868 1720.41 289.56L1721.94 290.84ZM1730.34 274.663C1731.96 268.725 1732.78 263.102 1732.78 257.8H1730.78C1730.78 262.898 1729.99 268.342 1728.41 274.137L1730.34 274.663ZM1732.78 257.8C1732.78 252.497 1731.96 246.94 1730.34 241.131L1728.41 241.669C1729.99 247.327 1730.78 252.703 1730.78 257.8H1732.78ZM1730.35 241.157C1728.84 235.138 1726.04 229.732 1721.94 224.949L1720.42 226.251C1724.32 230.802 1726.98 235.929 1728.41 241.643L1730.35 241.157ZM1721.94 224.96C1717.79 219.971 1711.93 216.477 1704.44 214.435L1703.91 216.365C1711.09 218.323 1716.57 221.629 1720.41 226.24L1721.94 224.96ZM1704.45 214.438C1701.58 213.618 1698.45 213.074 1695.06 212.803L1694.9 214.797C1698.17 215.059 1701.17 215.582 1703.9 216.362L1704.45 214.438ZM1695.06 212.803C1691.7 212.535 1688.61 212.4 1685.78 212.4V214.4C1688.55 214.4 1691.59 214.532 1694.9 214.797L1695.06 212.803ZM1685.78 212.4H1620.98V214.4H1685.78V212.4ZM1619.98 213.4V302.2H1621.98V213.4H1619.98ZM1816.38 353V65H1814.38V353H1816.38ZM1815.38 66H1869.78V64H1815.38V66ZM1868.78 65V353H1870.78V65H1868.78ZM1869.78 352H1815.38V354H1869.78V352Z" fill="black" mask="url(#path-1-outside-1_2024_3508)"/>
</g>
<path opacity="0.1" d="M114.039 549V261H168.439V379.4H297.239V261H351.639V549H297.239V430.2H168.439V549H114.039ZM375.789 549L463.789 261H544.989L632.989 549H576.989L498.589 295H508.989L431.789 549H375.789ZM428.589 489V438.2H580.589V489H428.589ZM656.836 549V261H844.836V311.8H711.236V549H656.836ZM864.758 549V261H986.358C989.158 261 992.891 261.133 997.558 261.4C1002.36 261.533 1006.62 261.933 1010.36 262.6C1027.56 265.267 1041.62 270.933 1052.56 279.6C1063.62 288.267 1071.76 299.2 1076.96 312.4C1082.16 325.467 1084.76 340.067 1084.76 356.2C1084.76 372.333 1082.09 387 1076.76 400.2C1071.56 413.267 1063.42 424.133 1052.36 432.8C1041.42 441.467 1027.42 447.133 1010.36 449.8C1006.62 450.333 1002.36 450.733 997.558 451C992.758 451.267 989.024 451.4 986.358 451.4H919.158V549H864.758ZM919.158 400.6H983.958C986.758 400.6 989.824 400.467 993.158 400.2C996.491 399.933 999.558 399.4 1002.36 398.6C1009.69 396.6 1015.36 393.267 1019.36 388.6C1023.36 383.8 1026.09 378.533 1027.56 372.8C1029.16 366.933 1029.96 361.4 1029.96 356.2C1029.96 351 1029.16 345.533 1027.56 339.8C1026.09 333.933 1023.36 328.667 1019.36 324C1015.36 319.2 1009.69 315.8 1002.36 313.8C999.558 313 996.491 312.467 993.158 312.2C989.824 311.933 986.758 311.8 983.958 311.8H919.158V400.6ZM1069.09 549L1157.09 261H1238.29L1326.29 549H1270.29L1191.89 295H1202.29L1125.09 549H1069.09ZM1121.89 489V438.2H1273.89V489H1121.89ZM1346.24 597V498.2C1354.91 498.2 1362.24 496.067 1368.24 491.8C1374.38 487.4 1379.38 481.267 1383.24 473.4C1387.11 465.4 1390.18 456.067 1392.44 445.4C1394.71 434.733 1396.38 423.133 1397.44 410.6C1398.78 394.6 1399.98 378.867 1401.04 363.4C1402.11 347.8 1403.18 331.667 1404.24 315C1405.31 298.2 1406.51 280.067 1407.84 260.6L1599.04 261V498.2H1621.04V597H1566.64V549H1400.64V597H1346.24ZM1427.44 498.2H1544.64V311.8L1457.44 311.4C1456.51 324.6 1455.71 336.733 1455.04 347.8C1454.51 358.867 1453.84 370.067 1453.04 381.4C1452.24 392.733 1451.18 405.4 1449.84 419.4C1448.51 433.4 1447.18 444.933 1445.84 454C1444.51 462.933 1442.44 470.733 1439.64 477.4C1436.98 484.067 1432.91 491 1427.44 498.2ZM1652.58 549V261H1706.98V358.6H1774.18C1776.84 358.6 1780.58 358.733 1785.38 359C1790.18 359.133 1794.44 359.533 1798.18 360.2C1815.24 362.867 1829.24 368.533 1840.18 377.2C1851.24 385.867 1859.38 396.8 1864.58 410C1869.91 423.067 1872.58 437.667 1872.58 453.8C1872.58 469.933 1869.98 484.6 1864.78 497.8C1859.58 510.867 1851.44 521.733 1840.38 530.4C1829.44 539.067 1815.38 544.733 1798.18 547.4C1794.44 547.933 1790.18 548.333 1785.38 548.6C1780.71 548.867 1776.98 549 1774.18 549H1652.58ZM1706.98 498.2H1771.78C1774.58 498.2 1777.64 498.067 1780.98 497.8C1784.31 497.533 1787.38 497 1790.18 496.2C1797.51 494.2 1803.18 490.867 1807.18 486.2C1811.18 481.4 1813.91 476.133 1815.38 470.4C1816.98 464.533 1817.78 459 1817.78 453.8C1817.78 448.6 1816.98 443.133 1815.38 437.4C1813.91 431.533 1811.18 426.267 1807.18 421.6C1803.18 416.8 1797.51 413.4 1790.18 411.4C1787.38 410.6 1784.31 410.067 1780.98 409.8C1777.64 409.533 1774.58 409.4 1771.78 409.4H1706.98V498.2ZM1901.38 549V261H1955.78V549H1901.38Z" fill="#00BBB6"/>
</svg>
