<svg width="27" height="27" viewBox="0 0 27 27" fill="none" xmlns="http://www.w3.org/2000/svg">
<path d="M21.2093 0.968617C21.2093 0.60225 20.9972 0.255165 20.6694 0.100905C20.3223 -0.0726371 19.9366 -0.0147897 19.6474 0.2166L11.1053 7.02332L21.2093 17.1273V0.968617ZM26.7125 25.3533L1.64528 0.286017C1.26927 -0.0899913 0.658015 -0.0899913 0.282006 0.286017C-0.0940021 0.662026 -0.0940021 1.27328 0.282006 1.64929L6.34828 7.71749H5.7833C5.18554 7.71749 4.66492 7.98744 4.31783 8.41166C4.02859 8.73946 3.85505 9.18296 3.85505 9.64574V17.3587C3.85505 18.4193 4.72276 19.287 5.7833 19.287H10.2568L19.6474 26.7879C19.8209 26.9228 20.0331 27 20.2452 27C20.3801 27 20.5344 26.9614 20.6694 26.9036C20.9972 26.7493 21.2093 26.4022 21.2093 26.0359V22.5785L25.3473 26.7165C25.5363 26.9055 25.7831 27 26.0299 27C26.2767 27 26.5235 26.9055 26.7125 26.7185C27.0885 26.3405 27.0885 25.7312 26.7125 25.3533Z" fill="#DADADA"/>
</svg>
