<svg width="178" height="174" viewBox="0 0 178 174" fill="none" xmlns="http://www.w3.org/2000/svg">
<path d="M60.3234 3.79823L28.1064 33.689V39.8114H41.1685V101.07C50.3623 101.07 58.3874 96.1591 62.8308 88.8348C54.6226 78.9569 49.6855 66.2665 49.6855 52.4204C49.6855 36.6124 56.1222 22.3078 66.5123 11.9787V3.79823H60.3234Z" fill="url(#paint0_linear_746_7116)"/>
<path d="M41.1689 39.8104V101.069C50.3627 101.069 58.3878 96.1581 62.8312 88.8338C54.623 78.9559 49.6859 66.2655 49.6859 52.4194C49.6859 48.4494 50.0909 44.5737 50.8638 40.8329C47.7832 40.1654 44.5454 39.8104 41.1689 39.8104Z" fill="url(#paint1_linear_746_7116)"/>
<path d="M54.2852 52.4186C54.2852 81.3681 77.754 104.837 106.702 104.837C135.653 104.837 159.122 81.3681 159.122 52.4186C159.122 23.469 135.653 0.00201416 106.702 0.00201416C77.754 0.00201416 54.2852 23.469 54.2852 52.4186ZM66.9293 52.4186C66.9293 30.4531 84.7362 12.6462 106.702 12.6462C128.669 12.6462 146.476 30.4531 146.476 52.4186C146.476 74.3859 128.669 92.1927 106.702 92.1927C84.7362 92.1927 66.9293 74.3859 66.9293 52.4186Z" fill="url(#paint2_linear_746_7116)"/>
<path d="M146.477 52.4175V52.4194C146.477 52.4194 146.477 52.4212 146.477 52.423C146.475 74.3885 128.67 92.1935 106.703 92.1935C84.7375 92.1935 66.9307 74.3885 66.9307 52.4212C66.9307 68.8005 71.3889 84.0335 79.4361 97.1954C87.3799 102.044 96.716 104.838 106.703 104.838C135.654 104.838 159.123 81.3689 159.123 52.4194C159.123 33.4587 149.055 16.85 133.974 7.64514C142.021 20.8071 146.477 36.0381 146.477 52.4175Z" fill="url(#paint3_linear_746_7116)"/>
<path d="M54.2852 52.4165C54.2852 71.3772 64.3535 87.9877 79.4348 97.1926C71.3875 84.0307 66.9293 68.7977 66.9293 52.4184C66.9293 30.4529 84.7362 12.6442 106.702 12.6442C128.669 12.6442 146.476 30.4492 146.476 52.4147C146.476 36.0353 142.02 20.8042 133.972 7.64233C126.027 2.79398 116.691 0 106.702 0C77.754 0 54.2852 23.467 54.2852 52.4165ZM146.476 52.4202C146.476 52.4184 146.476 52.4184 146.476 52.4184C146.476 52.4202 146.476 52.4184 146.476 52.4202Z" fill="url(#paint4_linear_746_7116)"/>
<path d="M8.27658 135.628H16.6253L12.4981 124.471L8.27658 135.628ZM17.9197 139.141H6.97667L3.89606 147.185H0L10.6878 119.994H14.3139L24.9629 147.185H20.9078L17.9197 139.141Z" fill="#00BBB6"/>
<path d="M34.8035 142.934L42.5975 119.994H46.4547L36.5953 147.184H33.0099L23.1523 119.994H27.0077L34.8035 142.934Z" fill="#00BBB6"/>
<path d="M51.9758 135.628H60.3245L56.1992 124.47L51.9758 135.628ZM61.6189 139.141H50.6759L47.5971 147.185H43.6992L54.387 119.994H58.0131L68.6621 147.185H64.607L61.6189 139.141Z" fill="#00BBB6"/>
<path d="M74.9536 125.2L75.255 147.184H71.6289V119.992H75.4455L89.3045 141.331L89.0789 119.992H92.6273V147.184H89.1436L74.9536 125.2Z" fill="#00BBB6"/>
<path d="M105.15 123.316V147.185H101.563V123.316H96.0859V119.992H110.664V123.316H105.15Z" fill="#00BBB6"/>
<path d="M116.524 135.628H124.872L120.745 124.471L116.524 135.628ZM126.167 139.141H115.224L112.145 147.185H108.247L118.935 119.994H122.561L133.21 147.185H129.155L126.167 139.141Z" fill="#00BBB6"/>
<path d="M143.823 137.101V133.664H160.515C160.213 137.97 158.917 141.343 156.624 143.786C154.183 146.406 150.848 147.713 146.617 147.713C142.514 147.713 139.178 146.354 136.61 143.634C134.065 140.99 132.795 137.604 132.795 133.475C132.795 129.548 134.167 126.23 136.911 123.525C139.655 120.818 142.993 119.464 146.92 119.464C152.636 119.464 156.574 121.844 158.74 126.602H154.208C152.799 124.237 150.267 123.054 146.617 123.054C143.899 123.054 141.545 124.104 139.555 126.206C137.566 128.307 136.573 130.731 136.573 133.475C136.573 136.572 137.479 139.128 139.291 141.141C141.105 143.155 143.546 144.163 146.617 144.163C151.602 144.163 154.825 141.809 156.286 137.101H143.823Z" fill="#00BBB6"/>
<path d="M177.999 143.747V147.185H164.027V119.992H177.999V123.241H167.652V131.926H177.999V135.099H167.652V143.747H177.999Z" fill="#00BBB6"/>
<path d="M28.1058 171.206V172.776H21.7227V160.353H28.1058V161.836H23.3776V165.806H28.1058V167.256H23.3776V171.206H28.1058Z" fill="#00BBB6"/>
<path d="M35.8442 170.834L39.4056 160.353H41.1677L36.6633 172.776H35.025L30.5225 160.353H32.2828L35.8442 170.834Z" fill="#00BBB6"/>
<path d="M50.0696 171.206V172.776H43.6865V160.353H50.0696V161.836H45.3415V165.806H50.0696V167.256H45.3415V171.206H50.0696Z" fill="#00BBB6"/>
<path d="M55.4018 162.731L55.5386 172.776H53.8818V160.353H55.6237L61.9569 170.102L61.8515 160.353H63.475V172.776H61.8829L55.4018 162.731Z" fill="#00BBB6"/>
<path d="M70.6528 161.87V172.776H69.0145V161.87H66.5127V160.351H73.1732V161.87H70.6528Z" fill="#00BBB6"/>
<path d="M84.3716 161.834V166.219H85.788C87.65 166.219 88.5801 165.501 88.5801 164.061C88.5801 162.578 87.6722 161.834 85.8545 161.834H84.3716ZM84.3716 167.702V172.776H82.748V160.351H86.0968C88.8445 160.351 90.2203 161.555 90.2203 163.957C90.2203 165.178 89.8005 166.121 88.961 166.786C88.19 167.396 87.1785 167.702 85.9248 167.702H84.3716Z" fill="#00BBB6"/>
<path d="M95.0327 166.753L95.1363 166.894H95.0327V166.753ZM95.0327 161.87V172.776H93.3926V160.353H96.9484C99.9717 160.353 101.486 161.681 101.486 164.333C101.486 165.355 101.133 166.209 100.428 166.894C99.7221 167.574 98.8622 167.918 97.8415 167.918L101.403 172.776H99.3448L95.1363 166.894C96.7746 166.894 97.8304 166.818 98.3056 166.668C99.3781 166.333 99.9162 165.547 99.9162 164.305C99.9162 162.683 98.7772 161.87 96.5046 161.87H95.0327Z" fill="#00BBB6"/>
<path d="M115.376 166.46C115.376 165.206 114.919 164.108 114.004 163.167C113.09 162.222 112.005 161.75 110.751 161.75C109.498 161.75 108.412 162.229 107.493 163.183C106.57 164.137 106.112 165.241 106.112 166.495C106.112 167.795 106.559 168.938 107.456 169.92C108.353 170.903 109.451 171.395 110.751 171.395C112.11 171.395 113.224 170.905 114.1 169.929C114.951 168.986 115.376 167.83 115.376 166.46ZM117.12 166.495C117.12 168.302 116.509 169.842 115.291 171.12C114.07 172.396 112.558 173.034 110.751 173.034C108.969 173.034 107.458 172.392 106.223 171.103C104.986 169.812 104.368 168.278 104.368 166.495C104.368 164.748 104.999 163.246 106.267 161.993C107.532 160.739 109.039 160.112 110.786 160.112C112.547 160.112 114.041 160.735 115.272 161.985C116.504 163.231 117.12 164.733 117.12 166.495Z" fill="#00BBB6"/>
<path d="M124.397 160.352H126.037V169.134C126.037 170.332 125.767 171.264 125.224 171.929C124.628 172.654 123.748 173.019 122.587 173.019C121.62 173.019 120.86 172.782 120.307 172.31C119.712 171.793 119.412 171.06 119.412 170.119H121.034C121.034 171.038 121.563 171.499 122.62 171.499C123.356 171.499 123.857 171.245 124.122 170.739C124.305 170.384 124.397 169.812 124.397 169.032V160.352Z" fill="#00BBB6"/>
<path d="M136.2 171.206V172.776H129.817V160.353H136.2V161.836H131.472V165.806H136.2V167.256H131.472V171.206H136.2Z" fill="#00BBB6"/>
<path d="M149.192 169.807H151.263C150.216 171.948 148.382 173.017 145.76 173.017C143.976 173.017 142.48 172.377 141.265 171.103C140.052 169.823 139.445 168.289 139.445 166.495C139.445 164.759 140.067 163.259 141.317 162.002C142.565 160.741 144.057 160.112 145.793 160.112C147.025 160.112 148.112 160.387 149.055 160.939C150.044 161.514 150.78 162.348 151.263 163.44H149.297C148.456 162.314 147.278 161.75 145.76 161.75C144.517 161.75 143.443 162.229 142.533 163.183C141.625 164.137 141.171 165.241 141.171 166.495C141.171 167.795 141.607 168.928 142.482 169.894C143.38 170.894 144.471 171.395 145.76 171.395C147.278 171.395 148.423 170.866 149.192 169.807Z" fill="#00BBB6"/>
<path d="M157.888 161.87V172.776H156.25V161.87H153.748V160.351H160.409V161.87H157.888Z" fill="#00BBB6"/>
<path d="M67.168 48.496C67.168 66.2696 81.0769 80.7573 98.5972 81.7725C105.014 76.3731 106.434 66.8909 101.617 59.8032C96.4763 52.2367 86.1768 50.273 78.6065 55.4172C76.6428 56.7486 75.0636 58.4368 73.8839 60.334C74.6753 54.0248 78.0573 48.0707 83.7267 44.219C94.2056 37.0963 108.481 39.8163 115.605 50.2989C121.942 59.6165 120.468 71.9315 112.693 79.5554C125.108 74.6922 133.913 62.6342 133.913 48.496C133.913 30.0678 118.972 15.1234 100.542 15.1234C82.1124 15.1234 67.168 30.0678 67.168 48.496Z" fill="url(#paint5_linear_746_7116)"/>
<defs>
<linearGradient id="paint0_linear_746_7116" x1="28.1078" y1="52.4334" x2="66.5138" y2="52.4334" gradientUnits="userSpaceOnUse">
<stop stop-color="#108C7E"/>
<stop offset="0.4" stop-color="#00BBB6"/>
<stop offset="1" stop-color="#3DDBD2"/>
</linearGradient>
<linearGradient id="paint1_linear_746_7116" x1="34.6671" y1="39.8092" x2="34.6671" y2="155.487" gradientUnits="userSpaceOnUse">
<stop stop-color="#108C7E"/>
<stop offset="0.4" stop-color="#00BBB6"/>
<stop offset="1" stop-color="#3DDBD2"/>
</linearGradient>
<linearGradient id="paint2_linear_746_7116" x1="54.2852" y1="52.4194" x2="159.121" y2="52.4194" gradientUnits="userSpaceOnUse">
<stop stop-color="#108C7E"/>
<stop offset="0.005" stop-color="#108C7E"/>
<stop offset="0.49502" stop-color="#00BBB6"/>
<stop offset="1" stop-color="#3DDBD2"/>
</linearGradient>
<linearGradient id="paint3_linear_746_7116" x1="76.8179" y1="98.0381" x2="251.301" y2="-76.4453" gradientUnits="userSpaceOnUse">
<stop stop-color="#108C7E"/>
<stop offset="0.4" stop-color="#00BBB6"/>
<stop offset="1" stop-color="#3DDBD2"/>
</linearGradient>
<linearGradient id="paint4_linear_746_7116" x1="136.59" y1="6.79948" x2="-37.8936" y2="181.283" gradientUnits="userSpaceOnUse">
<stop stop-color="#108C7E"/>
<stop offset="0.4" stop-color="#00BBB6"/>
<stop offset="1" stop-color="#3DDBD2"/>
</linearGradient>
<linearGradient id="paint5_linear_746_7116" x1="100.541" y1="-26.9242" x2="100.541" y2="171.927" gradientUnits="userSpaceOnUse">
<stop stop-color="#108C7E"/>
<stop offset="0.1" stop-color="#108C7E"/>
<stop offset="0.4" stop-color="#00BBB6"/>
<stop offset="1" stop-color="#3DDBD2"/>
</linearGradient>
</defs>
</svg>
