<svg width="27" height="27" viewBox="0 0 27 27" fill="none" xmlns="http://www.w3.org/2000/svg">
<path d="M15.6906 0.0956223C15.3774 -0.0644424 15.0084 -0.0220156 14.7384 0.211332L5.98321 7.71509H1.8C0.808202 7.71509 0 8.58098 0 9.64358V17.3575C0 18.4221 0.808202 19.286 1.8 19.286H5.98321L14.7366 26.7898C14.897 26.9258 15.0955 26.9998 15.3 27C15.4332 27 15.5664 26.9672 15.6906 26.9036C15.8432 26.8251 15.972 26.7019 16.0622 26.5484C16.1523 26.3948 16.2001 26.2171 16.2 26.0358V0.965372C16.1999 0.783786 16.152 0.605912 16.0619 0.4521C15.9719 0.298288 15.8432 0.174751 15.6906 0.0956223ZM20.7558 6.68142C20.4012 6.30729 19.8324 6.31308 19.4832 6.68913C19.134 7.06905 19.1376 7.67845 19.4904 8.05451C20.8512 9.49316 21.6 11.4274 21.6 13.5006C21.6 15.5737 20.8512 17.508 19.4904 18.9466C19.1376 19.3188 19.134 19.9302 19.4832 20.3101C19.5668 20.4006 19.6663 20.4725 19.776 20.5215C19.8857 20.5705 20.0034 20.5956 20.1222 20.5955C20.3508 20.5955 20.5794 20.5029 20.7558 20.3158C22.4622 18.5166 23.4001 16.0944 23.4001 13.5006C23.4001 10.9067 22.4622 8.48456 20.7558 6.68142Z" fill="#00BBB6"/>
<path d="M23.296 3.96415C22.9414 3.58809 22.3726 3.59195 22.0216 3.96993C21.6724 4.34792 21.676 4.95925 22.027 5.33338C24.0736 7.50679 25.2004 10.4072 25.2004 13.5005C25.2004 16.5938 24.0736 19.4924 22.027 21.6658C21.676 22.0418 21.6724 22.6532 22.0216 23.0311C22.1998 23.2201 22.4302 23.3146 22.6606 23.3146C22.8892 23.3146 23.1196 23.2221 23.296 23.035C25.6864 20.499 27.0004 17.1126 27.0004 13.5005C27.0004 9.88847 25.6864 6.50204 23.296 3.96415Z" fill="#00BBB6"/>
</svg>
