<svg width="22" height="22" viewBox="0 0 22 22" fill="none" xmlns="http://www.w3.org/2000/svg">
<g clip-path="url(#clip0_796_1060)">
<rect width="22" height="22" rx="11" fill="white"/>
<path d="M19.3712 3.8647C17.2758 1.40864 14.2246 0 11 0C7.77532 0 4.72416 1.40864 2.62879 3.8647C0.933582 5.85166 0 8.3857 0 11C0 13.6143 0.933582 16.1484 2.62879 18.1353C4.72416 20.5914 7.77532 22 11 22C14.2247 22 17.2759 20.5914 19.3712 18.1353C21.0664 16.1483 22 13.6143 22 11C22 8.38574 21.0664 5.8517 19.3712 3.8647ZM18.9473 17.2926C18.9373 17.2868 18.9269 17.2813 18.9168 17.2755C18.0855 16.7966 17.1253 16.4007 16.078 16.0991C16.4613 14.67 16.6787 13.0823 16.7111 11.4314H21.128C21.037 13.5649 20.2729 15.6196 18.9473 17.2926ZM3.05267 17.2926C1.72709 15.6196 0.963016 13.5649 0.872008 11.4314H5.28894C5.32129 13.0823 5.53867 14.67 5.922 16.0991C4.8748 16.4007 3.91467 16.7965 3.08352 17.2753C3.0733 17.2812 3.06281 17.2867 3.05267 17.2926ZM3.05267 4.70736C3.0629 4.71329 3.07347 4.71887 3.08374 4.7248C3.91484 5.20356 4.87489 5.5993 5.922 5.90086C5.53867 7.32995 5.32129 8.91773 5.28894 10.5686H0.871965C0.963016 8.43507 1.72709 6.38039 3.05267 4.70736ZM10.5686 6.58221V10.5686H6.15175C6.1838 8.98863 6.39164 7.47424 6.75671 6.11682C7.95489 6.39388 9.24447 6.55359 10.5686 6.58221ZM10.5686 11.4314V15.4178C9.24447 15.4464 7.95493 15.6061 6.75671 15.8831C6.39164 14.5257 6.18385 13.0113 6.15175 11.4314H10.5686ZM11.4314 15.4178V11.4314H15.8482C15.8162 13.0113 15.6083 14.5257 15.2433 15.8831C14.0451 15.6061 12.7555 15.4464 11.4314 15.4178ZM11.4314 10.5686V6.58225C12.7555 6.55364 14.0451 6.39392 15.2433 6.11686C15.6083 7.47429 15.8162 8.98868 15.8483 10.5686H11.4314ZM11.4314 5.71944V0.904449C12.5135 1.1113 13.537 2.09232 14.3507 3.71976C14.5934 4.20509 14.8088 4.73107 14.9952 5.29027C13.8769 5.54447 12.6717 5.6916 11.4314 5.71944ZM10.5686 0.904449V5.71944C9.32826 5.69164 8.12311 5.54447 7.00481 5.29027C7.19129 4.73112 7.40665 4.20509 7.6493 3.71976C8.463 2.09232 9.48651 1.1113 10.5686 0.904449ZM10.5686 16.2806V21.0956C9.48651 20.8887 8.463 19.9077 7.64925 18.2802C7.40661 17.7949 7.19125 17.2689 7.00477 16.7097C8.12311 16.4555 9.32826 16.3084 10.5686 16.2806ZM11.4314 21.0956V16.2806C12.6717 16.3084 13.8769 16.4555 14.9952 16.7097C14.8088 17.2689 14.5934 17.7949 14.3507 18.2802C13.537 19.9077 12.5135 20.8887 11.4314 21.0956ZM16.7111 10.5686C16.6787 8.91773 16.4614 7.32991 16.078 5.90086C17.1252 5.59926 18.0854 5.20347 18.9166 4.72463C18.9267 4.71879 18.9372 4.71324 18.9473 4.7074C20.2729 6.38047 21.0369 8.43515 21.128 10.5687H16.7111V10.5686ZM18.3718 4.04241C17.6241 4.45986 16.7658 4.8067 15.8318 5.07517C15.628 4.45517 15.3912 3.87153 15.1224 3.33395C14.6876 2.46439 14.1892 1.75304 13.6449 1.21391C15.4374 1.69808 17.0757 2.66935 18.3718 4.04241ZM8.35506 1.21391C7.81082 1.753 7.31238 2.46439 6.87758 3.33395C6.60877 3.87153 6.37192 4.45517 6.16816 5.07517C5.2342 4.8067 4.37585 4.45986 3.62815 4.04241C4.92426 2.66935 6.56262 1.69808 8.35506 1.21391ZM3.62815 17.9575C4.37585 17.5401 5.2342 17.1933 6.16816 16.9248C6.37192 17.5448 6.60877 18.1284 6.87758 18.666C7.31238 19.5356 7.81082 20.247 8.35506 20.786C6.56257 20.3019 4.92426 19.3306 3.62815 17.9575ZM13.6449 20.7861C14.1892 20.247 14.6876 19.5356 15.1224 18.6661C15.3912 18.1285 15.6281 17.5448 15.8318 16.9248C16.7658 17.1933 17.6241 17.5401 18.3718 17.9576C17.0757 19.3306 15.4374 20.3019 13.6449 20.7861Z" fill="black"/>
</g>
<defs>
<clipPath id="clip0_796_1060">
<rect width="22" height="22" rx="11" fill="white"/>
</clipPath>
</defs>
</svg>
