<svg width="1000" height="570" viewBox="0 0 1000 570" fill="none" xmlns="http://www.w3.org/2000/svg">
<g clip-path="url(#clip0_366_3521)">
<g filter="url(#filter0_d_366_3521)">
<rect width="1000" height="570" rx="10" fill="white"/>
</g>
<g opacity="0.1">
<path d="M253.591 300.914L253.591 300.914C251.613 321.742 243.051 372.323 238.706 395.626C236.853 405.557 233.087 409.158 229.319 409.593L229.311 409.594L229.304 409.595C225.341 409.936 221.878 408.632 218.509 406.664C216.826 405.681 215.156 404.526 213.456 403.32C213.118 403.081 212.78 402.839 212.44 402.597C211.06 401.613 209.654 400.611 208.182 399.639C202.386 395.818 197.841 392.722 193.348 389.661L193.271 389.608C188.804 386.565 184.382 383.552 178.822 379.889C178.822 379.889 178.821 379.889 178.821 379.889L179.096 379.471C167.819 372.067 172.606 367.521 178.962 361.484C179.952 360.543 180.981 359.566 181.993 358.536L253.591 300.914ZM253.591 300.914L253.592 300.902C253.66 299.949 253.625 298.87 253.593 297.952L253.587 297.805C253.573 297.399 253.56 297.03 253.556 296.713C253.552 296.35 253.561 296.094 253.586 295.945L253.598 295.873L253.589 295.801C253.45 294.69 253.026 293.091 251.566 291.921C250.695 291.196 249.594 290.778 248.602 290.538C247.604 290.297 246.675 290.228 246.115 290.228C243.518 290.228 240.32 290.915 233.238 293.484C226.148 296.056 215.11 300.537 196.811 308.173C184.034 313.442 158.488 324.503 120.048 341.222M253.591 300.914L120.048 341.222M110.001 348.869C109.854 350.156 110.199 351.242 110.941 352.169C111.668 353.077 112.76 353.812 114.08 354.459C116.168 355.483 118.962 356.349 122.084 357.316C122.891 357.566 123.72 357.822 124.564 358.09C127.929 359.212 131.857 360.4 135.541 361.325C139.215 362.248 142.682 362.918 145.111 362.986C149.477 363.123 154.323 361.214 159.626 357.634C177.598 345.521 191.191 336.404 200.439 330.283C205.063 327.222 208.599 324.912 211.051 323.351C212.278 322.57 213.23 321.979 213.911 321.575C214.252 321.373 214.52 321.221 214.718 321.117C214.903 321.019 214.991 320.984 215.013 320.975C215.12 320.959 215.224 320.943 215.326 320.927C215.685 320.871 216.014 320.82 216.342 320.82C216.738 320.82 217.062 320.899 217.332 321.114C217.56 321.362 217.726 321.661 217.816 321.985C217.908 322.317 217.918 322.667 217.846 323.004L110.001 348.868C110.001 348.868 110.001 348.868 110.001 348.869ZM110.001 348.869C110.157 347.473 111.187 346.178 112.851 344.951C114.529 343.714 116.941 342.478 120.048 341.222M110.001 348.869L120.048 341.222M60.833 343C60.833 270.596 119.596 211.833 192 211.833C264.404 211.833 323.166 270.596 323.166 343C323.166 415.404 264.404 474.166 192 474.166C119.596 474.166 60.833 415.404 60.833 343Z" stroke="black"/>
</g>
<rect x="51" y="121.424" width="379.614" height="123.568" rx="61.7838" transform="rotate(-45 51 121.424)" fill="#463CFF"/>
<rect x="850.382" y="189.947" width="253.847" height="28.9071" rx="14.4536" transform="rotate(-45 850.382 189.947)" fill="#8751FF"/>
<rect x="614" y="631.447" width="379.614" height="123.568" rx="61.7838" transform="rotate(-45 614 631.447)" fill="#E20080"/>
<rect x="49.0166" y="61.4424" width="379.614" height="23.8645" rx="11.9323" transform="rotate(-45 49.0166 61.4424)" fill="#D9D9D9"/>
<rect x="51" y="745.428" width="379.614" height="25.9192" rx="12.9596" transform="rotate(-45 51 745.428)" fill="#80FF00"/>
</g>
<defs>
<filter id="filter0_d_366_3521" x="-85" y="-85" width="1200" height="770" filterUnits="userSpaceOnUse" color-interpolation-filters="sRGB">
<feFlood flood-opacity="0" result="BackgroundImageFix"/>
<feColorMatrix in="SourceAlpha" type="matrix" values="0 0 0 0 0 0 0 0 0 0 0 0 0 0 0 0 0 0 127 0" result="hardAlpha"/>
<feOffset dx="15" dy="15"/>
<feGaussianBlur stdDeviation="50"/>
<feComposite in2="hardAlpha" operator="out"/>
<feColorMatrix type="matrix" values="0 0 0 0 0 0 0 0 0 0 0 0 0 0 0 0 0 0 0.25 0"/>
<feBlend mode="normal" in2="BackgroundImageFix" result="effect1_dropShadow_366_3521"/>
<feBlend mode="normal" in="SourceGraphic" in2="effect1_dropShadow_366_3521" result="shape"/>
</filter>
<clipPath id="clip0_366_3521">
<rect width="1000" height="570" rx="10" fill="white"/>
</clipPath>
</defs>
</svg>
